%TF.GenerationSoftware,KiCad,Pcbnew,8.0.2*%
%TF.CreationDate,2024-06-01T20:14:58-04:00*%
%TF.ProjectId,small_compliant_drive,736d616c-6c5f-4636-9f6d-706c69616e74,rev?*%
%TF.SameCoordinates,Original*%
%TF.FileFunction,Copper,L4,Bot*%
%TF.FilePolarity,Positive*%
%FSLAX46Y46*%
G04 Gerber Fmt 4.6, Leading zero omitted, Abs format (unit mm)*
G04 Created by KiCad (PCBNEW 8.0.2) date 2024-06-01 20:14:58*
%MOMM*%
%LPD*%
G01*
G04 APERTURE LIST*
%TA.AperFunction,ComponentPad*%
%ADD10R,3.800000X3.800000*%
%TD*%
%TA.AperFunction,ComponentPad*%
%ADD11C,3.800000*%
%TD*%
%TA.AperFunction,ComponentPad*%
%ADD12C,6.000000*%
%TD*%
%TA.AperFunction,ComponentPad*%
%ADD13O,1.700000X1.700000*%
%TD*%
%TA.AperFunction,ComponentPad*%
%ADD14R,1.700000X1.700000*%
%TD*%
%TA.AperFunction,ViaPad*%
%ADD15C,0.600000*%
%TD*%
%TA.AperFunction,Conductor*%
%ADD16C,0.200000*%
%TD*%
G04 APERTURE END LIST*
D10*
%TO.P,J4-Vbat,1,Pin_1*%
%TO.N,Vbat*%
X155000000Y-46500000D03*
D11*
%TO.P,J4-Vbat,2,Pin_2*%
%TO.N,Common*%
X155000000Y-51500000D03*
%TD*%
D12*
%TO.P,H3,1,1*%
%TO.N,VsensC*%
X192000000Y-85000000D03*
%TD*%
%TO.P,H2,1,1*%
%TO.N,VsensB*%
X192000000Y-70000000D03*
%TD*%
%TO.P,H1,1,1*%
%TO.N,VsensA*%
X192000000Y-55000000D03*
%TD*%
D13*
%TO.P,J1,3,Pin_3*%
%TO.N,Ic*%
X176555000Y-40975000D03*
%TO.P,J1,2,Pin_2*%
%TO.N,Ib*%
X174015000Y-40975000D03*
D14*
%TO.P,J1,1,Pin_1*%
%TO.N,Ia*%
X171475000Y-40975000D03*
%TD*%
D13*
%TO.P,J2,6,Pin_6*%
%TO.N,PHASE_C_LOW*%
X160500000Y-76580000D03*
%TO.P,J2,5,Pin_5*%
%TO.N,PHASE_C_HIGH*%
X160500000Y-74040000D03*
%TO.P,J2,4,Pin_4*%
%TO.N,PHASE_B_LOW*%
X160500000Y-71500000D03*
%TO.P,J2,3,Pin_3*%
%TO.N,PHASE_B_HIGH*%
X160500000Y-68960000D03*
%TO.P,J2,2,Pin_2*%
%TO.N,PHASE_A_LOW*%
X160500000Y-66420000D03*
D14*
%TO.P,J2,1,Pin_1*%
%TO.N,PHASE_A_HIGH*%
X160500000Y-63880000D03*
%TD*%
%TO.P,J3,1,Pin_1*%
%TO.N,VsensA*%
X189460000Y-41000000D03*
D13*
%TO.P,J3,2,Pin_2*%
%TO.N,VsensB*%
X192000000Y-41000000D03*
%TO.P,J3,3,Pin_3*%
%TO.N,VsensC*%
X194540000Y-41000000D03*
%TD*%
D14*
%TO.P,J5,1,Pin_1*%
%TO.N,Common*%
X157460000Y-41000000D03*
D13*
%TO.P,J5,2,Pin_2*%
X160000000Y-41000000D03*
%TD*%
D15*
%TO.N,3.3V*%
X165000000Y-75500000D03*
X158500000Y-60500000D03*
X158500000Y-59500000D03*
X165000000Y-45000000D03*
X165000000Y-61000000D03*
%TO.N,Vbat*%
X158000000Y-56000000D03*
X155500000Y-56000000D03*
X153500000Y-56000000D03*
%TO.N,Common*%
X156500000Y-59000000D03*
X155500000Y-59000000D03*
X155500000Y-58000000D03*
X156500000Y-58000000D03*
%TO.N,Vref*%
X185500000Y-63000000D03*
X185500000Y-78500000D03*
X185500000Y-49000000D03*
%TO.N,Common*%
X188500000Y-46500000D03*
%TO.N,Vbat*%
X153500000Y-60000000D03*
%TO.N,PHASE_C_LOW*%
X168000000Y-87000000D03*
%TO.N,PHASE_C_HIGH*%
X168500000Y-82500000D03*
%TO.N,PHASE_B_LOW*%
X167500000Y-72000000D03*
%TO.N,PHASE_B_HIGH*%
X168000000Y-68000000D03*
%TO.N,Common*%
X171000000Y-88500000D03*
X170000000Y-88500000D03*
X171500000Y-88000000D03*
X170500000Y-88000000D03*
X172000000Y-87500000D03*
X172000000Y-88500000D03*
%TO.N,Vbat*%
X170000000Y-81500000D03*
X171000000Y-81500000D03*
X171500000Y-82000000D03*
X170500000Y-82000000D03*
X172000000Y-81500000D03*
X172000000Y-82500000D03*
%TO.N,Common*%
X172000000Y-72500000D03*
X172000000Y-73500000D03*
X171000000Y-73500000D03*
X170000000Y-73500000D03*
X170500000Y-73000000D03*
X171500000Y-73000000D03*
%TO.N,Vbat*%
X172000000Y-67500000D03*
X170500000Y-67000000D03*
X171500000Y-67000000D03*
X172000000Y-66500000D03*
X171000000Y-66500000D03*
X170000000Y-66500000D03*
%TO.N,Common*%
X170500000Y-58000000D03*
X171500000Y-58000000D03*
%TO.N,Vbat*%
X172000000Y-52500000D03*
X171500000Y-52000000D03*
X170500000Y-52000000D03*
%TO.N,Common*%
X172000000Y-57500000D03*
X172000000Y-58500000D03*
X171000000Y-58500000D03*
X170000000Y-58500000D03*
%TO.N,PHASE_A_LOW*%
X168500000Y-57000000D03*
%TO.N,Vbat*%
X170000000Y-51500000D03*
%TO.N,PHASE_A_HIGH*%
X168000000Y-53000000D03*
%TO.N,Vbat*%
X172000000Y-51500000D03*
X171000000Y-51500000D03*
%TO.N,Common*%
X180000000Y-77000000D03*
X180000000Y-62000000D03*
X180000000Y-47000000D03*
%TO.N,Ic*%
X178500000Y-78500000D03*
%TO.N,Ia*%
X177000000Y-49000000D03*
%TO.N,Ib*%
X178000000Y-64000000D03*
%TD*%
D16*
%TO.N,PHASE_A_LOW*%
X167920000Y-60080000D02*
X167920000Y-57580000D01*
X165500000Y-62500000D02*
X167920000Y-60080000D01*
X164420000Y-62500000D02*
X165500000Y-62500000D01*
X167920000Y-57580000D02*
X168500000Y-57000000D01*
X160500000Y-66420000D02*
X164420000Y-62500000D01*
%TO.N,Vref*%
X185500000Y-49000000D02*
X185500000Y-78500000D01*
%TO.N,PHASE_C_LOW*%
X168000000Y-87000000D02*
X168000000Y-84080000D01*
X168000000Y-84080000D02*
X160500000Y-76580000D01*
%TO.N,PHASE_C_HIGH*%
X168500000Y-82040000D02*
X160500000Y-74040000D01*
X168500000Y-82500000D02*
X168500000Y-82040000D01*
%TO.N,PHASE_B_LOW*%
X166500000Y-71500000D02*
X160500000Y-71500000D01*
X167000000Y-72000000D02*
X166500000Y-71500000D01*
X167500000Y-72000000D02*
X167000000Y-72000000D01*
%TO.N,PHASE_A_HIGH*%
X166000000Y-53000000D02*
X160500000Y-58500000D01*
X168000000Y-53000000D02*
X166000000Y-53000000D01*
%TO.N,PHASE_B_HIGH*%
X168000000Y-68000000D02*
X167040000Y-68960000D01*
X167040000Y-68960000D02*
X160500000Y-68960000D01*
%TO.N,PHASE_A_HIGH*%
X160500000Y-58500000D02*
X160500000Y-63880000D01*
%TO.N,Ic*%
X179400000Y-77600000D02*
X178500000Y-78500000D01*
X179400000Y-41900000D02*
X179400000Y-77600000D01*
X178900000Y-41900000D02*
X179400000Y-41900000D01*
X177975000Y-40975000D02*
X178900000Y-41900000D01*
X176555000Y-40975000D02*
X177975000Y-40975000D01*
%TO.N,Ib*%
X178500000Y-63500000D02*
X178000000Y-64000000D01*
X178500000Y-45460000D02*
X178500000Y-63500000D01*
X174015000Y-40975000D02*
X178500000Y-45460000D01*
%TO.N,Ia*%
X171475000Y-43475000D02*
X177000000Y-49000000D01*
X171475000Y-40975000D02*
X171475000Y-43475000D01*
%TO.N,VsensC*%
X200000000Y-77000000D02*
X192000000Y-85000000D01*
X200000000Y-46460000D02*
X200000000Y-77000000D01*
X194540000Y-41000000D02*
X200000000Y-46460000D01*
%TO.N,VsensB*%
X195300000Y-66700000D02*
X192000000Y-70000000D01*
X192000000Y-41000000D02*
X195300000Y-44300000D01*
X195300000Y-44300000D02*
X195300000Y-66700000D01*
%TO.N,VsensA*%
X189460000Y-52460000D02*
X192000000Y-55000000D01*
X189460000Y-41000000D02*
X189460000Y-52460000D01*
%TD*%
M02*
