%TF.GenerationSoftware,KiCad,Pcbnew,8.0.2*%
%TF.CreationDate,2024-06-01T20:14:58-04:00*%
%TF.ProjectId,small_compliant_drive,736d616c-6c5f-4636-9f6d-706c69616e74,rev?*%
%TF.SameCoordinates,Original*%
%TF.FileFunction,Legend,Top*%
%TF.FilePolarity,Positive*%
%FSLAX46Y46*%
G04 Gerber Fmt 4.6, Leading zero omitted, Abs format (unit mm)*
G04 Created by KiCad (PCBNEW 8.0.2) date 2024-06-01 20:14:58*
%MOMM*%
%LPD*%
G01*
G04 APERTURE LIST*
%ADD10C,0.150000*%
%ADD11C,0.254000*%
%ADD12C,0.120000*%
%ADD13C,0.127000*%
G04 APERTURE END LIST*
D10*
X158454819Y-51571428D02*
X159169104Y-51571428D01*
X159169104Y-51571428D02*
X159311961Y-51619047D01*
X159311961Y-51619047D02*
X159407200Y-51714285D01*
X159407200Y-51714285D02*
X159454819Y-51857142D01*
X159454819Y-51857142D02*
X159454819Y-51952380D01*
X158788152Y-50666666D02*
X159454819Y-50666666D01*
X158407200Y-50904761D02*
X159121485Y-51142856D01*
X159121485Y-51142856D02*
X159121485Y-50523809D01*
X159073866Y-50142856D02*
X159073866Y-49380952D01*
X158454819Y-49047618D02*
X159454819Y-48714285D01*
X159454819Y-48714285D02*
X158454819Y-48380952D01*
X159454819Y-48047618D02*
X158454819Y-48047618D01*
X158835771Y-48047618D02*
X158788152Y-47952380D01*
X158788152Y-47952380D02*
X158788152Y-47761904D01*
X158788152Y-47761904D02*
X158835771Y-47666666D01*
X158835771Y-47666666D02*
X158883390Y-47619047D01*
X158883390Y-47619047D02*
X158978628Y-47571428D01*
X158978628Y-47571428D02*
X159264342Y-47571428D01*
X159264342Y-47571428D02*
X159359580Y-47619047D01*
X159359580Y-47619047D02*
X159407200Y-47666666D01*
X159407200Y-47666666D02*
X159454819Y-47761904D01*
X159454819Y-47761904D02*
X159454819Y-47952380D01*
X159454819Y-47952380D02*
X159407200Y-48047618D01*
X159454819Y-46714285D02*
X158931009Y-46714285D01*
X158931009Y-46714285D02*
X158835771Y-46761904D01*
X158835771Y-46761904D02*
X158788152Y-46857142D01*
X158788152Y-46857142D02*
X158788152Y-47047618D01*
X158788152Y-47047618D02*
X158835771Y-47142856D01*
X159407200Y-46714285D02*
X159454819Y-46809523D01*
X159454819Y-46809523D02*
X159454819Y-47047618D01*
X159454819Y-47047618D02*
X159407200Y-47142856D01*
X159407200Y-47142856D02*
X159311961Y-47190475D01*
X159311961Y-47190475D02*
X159216723Y-47190475D01*
X159216723Y-47190475D02*
X159121485Y-47142856D01*
X159121485Y-47142856D02*
X159073866Y-47047618D01*
X159073866Y-47047618D02*
X159073866Y-46809523D01*
X159073866Y-46809523D02*
X159026247Y-46714285D01*
X158788152Y-46380951D02*
X158788152Y-45999999D01*
X158454819Y-46238094D02*
X159311961Y-46238094D01*
X159311961Y-46238094D02*
X159407200Y-46190475D01*
X159407200Y-46190475D02*
X159454819Y-46095237D01*
X159454819Y-46095237D02*
X159454819Y-45999999D01*
X155114700Y-56071428D02*
X155114700Y-54928571D01*
X155686128Y-55499999D02*
X154543271Y-55499999D01*
X155114700Y-43071428D02*
X155114700Y-41928571D01*
X180833333Y-82834819D02*
X180500000Y-82358628D01*
X180261905Y-82834819D02*
X180261905Y-81834819D01*
X180261905Y-81834819D02*
X180642857Y-81834819D01*
X180642857Y-81834819D02*
X180738095Y-81882438D01*
X180738095Y-81882438D02*
X180785714Y-81930057D01*
X180785714Y-81930057D02*
X180833333Y-82025295D01*
X180833333Y-82025295D02*
X180833333Y-82168152D01*
X180833333Y-82168152D02*
X180785714Y-82263390D01*
X180785714Y-82263390D02*
X180738095Y-82311009D01*
X180738095Y-82311009D02*
X180642857Y-82358628D01*
X180642857Y-82358628D02*
X180261905Y-82358628D01*
X181166667Y-81834819D02*
X181785714Y-81834819D01*
X181785714Y-81834819D02*
X181452381Y-82215771D01*
X181452381Y-82215771D02*
X181595238Y-82215771D01*
X181595238Y-82215771D02*
X181690476Y-82263390D01*
X181690476Y-82263390D02*
X181738095Y-82311009D01*
X181738095Y-82311009D02*
X181785714Y-82406247D01*
X181785714Y-82406247D02*
X181785714Y-82644342D01*
X181785714Y-82644342D02*
X181738095Y-82739580D01*
X181738095Y-82739580D02*
X181690476Y-82787200D01*
X181690476Y-82787200D02*
X181595238Y-82834819D01*
X181595238Y-82834819D02*
X181309524Y-82834819D01*
X181309524Y-82834819D02*
X181214286Y-82787200D01*
X181214286Y-82787200D02*
X181166667Y-82739580D01*
X180833333Y-67834819D02*
X180500000Y-67358628D01*
X180261905Y-67834819D02*
X180261905Y-66834819D01*
X180261905Y-66834819D02*
X180642857Y-66834819D01*
X180642857Y-66834819D02*
X180738095Y-66882438D01*
X180738095Y-66882438D02*
X180785714Y-66930057D01*
X180785714Y-66930057D02*
X180833333Y-67025295D01*
X180833333Y-67025295D02*
X180833333Y-67168152D01*
X180833333Y-67168152D02*
X180785714Y-67263390D01*
X180785714Y-67263390D02*
X180738095Y-67311009D01*
X180738095Y-67311009D02*
X180642857Y-67358628D01*
X180642857Y-67358628D02*
X180261905Y-67358628D01*
X181214286Y-66930057D02*
X181261905Y-66882438D01*
X181261905Y-66882438D02*
X181357143Y-66834819D01*
X181357143Y-66834819D02*
X181595238Y-66834819D01*
X181595238Y-66834819D02*
X181690476Y-66882438D01*
X181690476Y-66882438D02*
X181738095Y-66930057D01*
X181738095Y-66930057D02*
X181785714Y-67025295D01*
X181785714Y-67025295D02*
X181785714Y-67120533D01*
X181785714Y-67120533D02*
X181738095Y-67263390D01*
X181738095Y-67263390D02*
X181166667Y-67834819D01*
X181166667Y-67834819D02*
X181785714Y-67834819D01*
X180833333Y-52884819D02*
X180500000Y-52408628D01*
X180261905Y-52884819D02*
X180261905Y-51884819D01*
X180261905Y-51884819D02*
X180642857Y-51884819D01*
X180642857Y-51884819D02*
X180738095Y-51932438D01*
X180738095Y-51932438D02*
X180785714Y-51980057D01*
X180785714Y-51980057D02*
X180833333Y-52075295D01*
X180833333Y-52075295D02*
X180833333Y-52218152D01*
X180833333Y-52218152D02*
X180785714Y-52313390D01*
X180785714Y-52313390D02*
X180738095Y-52361009D01*
X180738095Y-52361009D02*
X180642857Y-52408628D01*
X180642857Y-52408628D02*
X180261905Y-52408628D01*
X181785714Y-52884819D02*
X181214286Y-52884819D01*
X181500000Y-52884819D02*
X181500000Y-51884819D01*
X181500000Y-51884819D02*
X181404762Y-52027676D01*
X181404762Y-52027676D02*
X181309524Y-52122914D01*
X181309524Y-52122914D02*
X181214286Y-52170533D01*
X184333333Y-62359580D02*
X184285714Y-62407200D01*
X184285714Y-62407200D02*
X184142857Y-62454819D01*
X184142857Y-62454819D02*
X184047619Y-62454819D01*
X184047619Y-62454819D02*
X183904762Y-62407200D01*
X183904762Y-62407200D02*
X183809524Y-62311961D01*
X183809524Y-62311961D02*
X183761905Y-62216723D01*
X183761905Y-62216723D02*
X183714286Y-62026247D01*
X183714286Y-62026247D02*
X183714286Y-61883390D01*
X183714286Y-61883390D02*
X183761905Y-61692914D01*
X183761905Y-61692914D02*
X183809524Y-61597676D01*
X183809524Y-61597676D02*
X183904762Y-61502438D01*
X183904762Y-61502438D02*
X184047619Y-61454819D01*
X184047619Y-61454819D02*
X184142857Y-61454819D01*
X184142857Y-61454819D02*
X184285714Y-61502438D01*
X184285714Y-61502438D02*
X184333333Y-61550057D01*
X185238095Y-61454819D02*
X184761905Y-61454819D01*
X184761905Y-61454819D02*
X184714286Y-61931009D01*
X184714286Y-61931009D02*
X184761905Y-61883390D01*
X184761905Y-61883390D02*
X184857143Y-61835771D01*
X184857143Y-61835771D02*
X185095238Y-61835771D01*
X185095238Y-61835771D02*
X185190476Y-61883390D01*
X185190476Y-61883390D02*
X185238095Y-61931009D01*
X185238095Y-61931009D02*
X185285714Y-62026247D01*
X185285714Y-62026247D02*
X185285714Y-62264342D01*
X185285714Y-62264342D02*
X185238095Y-62359580D01*
X185238095Y-62359580D02*
X185190476Y-62407200D01*
X185190476Y-62407200D02*
X185095238Y-62454819D01*
X185095238Y-62454819D02*
X184857143Y-62454819D01*
X184857143Y-62454819D02*
X184761905Y-62407200D01*
X184761905Y-62407200D02*
X184714286Y-62359580D01*
X184695833Y-77409580D02*
X184648214Y-77457200D01*
X184648214Y-77457200D02*
X184505357Y-77504819D01*
X184505357Y-77504819D02*
X184410119Y-77504819D01*
X184410119Y-77504819D02*
X184267262Y-77457200D01*
X184267262Y-77457200D02*
X184172024Y-77361961D01*
X184172024Y-77361961D02*
X184124405Y-77266723D01*
X184124405Y-77266723D02*
X184076786Y-77076247D01*
X184076786Y-77076247D02*
X184076786Y-76933390D01*
X184076786Y-76933390D02*
X184124405Y-76742914D01*
X184124405Y-76742914D02*
X184172024Y-76647676D01*
X184172024Y-76647676D02*
X184267262Y-76552438D01*
X184267262Y-76552438D02*
X184410119Y-76504819D01*
X184410119Y-76504819D02*
X184505357Y-76504819D01*
X184505357Y-76504819D02*
X184648214Y-76552438D01*
X184648214Y-76552438D02*
X184695833Y-76600057D01*
X185552976Y-76838152D02*
X185552976Y-77504819D01*
X185314881Y-76457200D02*
X185076786Y-77171485D01*
X185076786Y-77171485D02*
X185695833Y-77171485D01*
X182833333Y-45859580D02*
X182785714Y-45907200D01*
X182785714Y-45907200D02*
X182642857Y-45954819D01*
X182642857Y-45954819D02*
X182547619Y-45954819D01*
X182547619Y-45954819D02*
X182404762Y-45907200D01*
X182404762Y-45907200D02*
X182309524Y-45811961D01*
X182309524Y-45811961D02*
X182261905Y-45716723D01*
X182261905Y-45716723D02*
X182214286Y-45526247D01*
X182214286Y-45526247D02*
X182214286Y-45383390D01*
X182214286Y-45383390D02*
X182261905Y-45192914D01*
X182261905Y-45192914D02*
X182309524Y-45097676D01*
X182309524Y-45097676D02*
X182404762Y-45002438D01*
X182404762Y-45002438D02*
X182547619Y-44954819D01*
X182547619Y-44954819D02*
X182642857Y-44954819D01*
X182642857Y-44954819D02*
X182785714Y-45002438D01*
X182785714Y-45002438D02*
X182833333Y-45050057D01*
X183166667Y-44954819D02*
X183785714Y-44954819D01*
X183785714Y-44954819D02*
X183452381Y-45335771D01*
X183452381Y-45335771D02*
X183595238Y-45335771D01*
X183595238Y-45335771D02*
X183690476Y-45383390D01*
X183690476Y-45383390D02*
X183738095Y-45431009D01*
X183738095Y-45431009D02*
X183785714Y-45526247D01*
X183785714Y-45526247D02*
X183785714Y-45764342D01*
X183785714Y-45764342D02*
X183738095Y-45859580D01*
X183738095Y-45859580D02*
X183690476Y-45907200D01*
X183690476Y-45907200D02*
X183595238Y-45954819D01*
X183595238Y-45954819D02*
X183309524Y-45954819D01*
X183309524Y-45954819D02*
X183214286Y-45907200D01*
X183214286Y-45907200D02*
X183166667Y-45859580D01*
X155138095Y-55404819D02*
X155138095Y-56214342D01*
X155138095Y-56214342D02*
X155185714Y-56309580D01*
X155185714Y-56309580D02*
X155233333Y-56357200D01*
X155233333Y-56357200D02*
X155328571Y-56404819D01*
X155328571Y-56404819D02*
X155519047Y-56404819D01*
X155519047Y-56404819D02*
X155614285Y-56357200D01*
X155614285Y-56357200D02*
X155661904Y-56309580D01*
X155661904Y-56309580D02*
X155709523Y-56214342D01*
X155709523Y-56214342D02*
X155709523Y-55404819D01*
X156661904Y-55404819D02*
X156185714Y-55404819D01*
X156185714Y-55404819D02*
X156138095Y-55881009D01*
X156138095Y-55881009D02*
X156185714Y-55833390D01*
X156185714Y-55833390D02*
X156280952Y-55785771D01*
X156280952Y-55785771D02*
X156519047Y-55785771D01*
X156519047Y-55785771D02*
X156614285Y-55833390D01*
X156614285Y-55833390D02*
X156661904Y-55881009D01*
X156661904Y-55881009D02*
X156709523Y-55976247D01*
X156709523Y-55976247D02*
X156709523Y-56214342D01*
X156709523Y-56214342D02*
X156661904Y-56309580D01*
X156661904Y-56309580D02*
X156614285Y-56357200D01*
X156614285Y-56357200D02*
X156519047Y-56404819D01*
X156519047Y-56404819D02*
X156280952Y-56404819D01*
X156280952Y-56404819D02*
X156185714Y-56357200D01*
X156185714Y-56357200D02*
X156138095Y-56309580D01*
X185738095Y-43554819D02*
X185738095Y-44364342D01*
X185738095Y-44364342D02*
X185785714Y-44459580D01*
X185785714Y-44459580D02*
X185833333Y-44507200D01*
X185833333Y-44507200D02*
X185928571Y-44554819D01*
X185928571Y-44554819D02*
X186119047Y-44554819D01*
X186119047Y-44554819D02*
X186214285Y-44507200D01*
X186214285Y-44507200D02*
X186261904Y-44459580D01*
X186261904Y-44459580D02*
X186309523Y-44364342D01*
X186309523Y-44364342D02*
X186309523Y-43554819D01*
X187214285Y-43888152D02*
X187214285Y-44554819D01*
X186976190Y-43507200D02*
X186738095Y-44221485D01*
X186738095Y-44221485D02*
X187357142Y-44221485D01*
X177238095Y-79504819D02*
X177238095Y-80314342D01*
X177238095Y-80314342D02*
X177285714Y-80409580D01*
X177285714Y-80409580D02*
X177333333Y-80457200D01*
X177333333Y-80457200D02*
X177428571Y-80504819D01*
X177428571Y-80504819D02*
X177619047Y-80504819D01*
X177619047Y-80504819D02*
X177714285Y-80457200D01*
X177714285Y-80457200D02*
X177761904Y-80409580D01*
X177761904Y-80409580D02*
X177809523Y-80314342D01*
X177809523Y-80314342D02*
X177809523Y-79504819D01*
X178190476Y-79504819D02*
X178809523Y-79504819D01*
X178809523Y-79504819D02*
X178476190Y-79885771D01*
X178476190Y-79885771D02*
X178619047Y-79885771D01*
X178619047Y-79885771D02*
X178714285Y-79933390D01*
X178714285Y-79933390D02*
X178761904Y-79981009D01*
X178761904Y-79981009D02*
X178809523Y-80076247D01*
X178809523Y-80076247D02*
X178809523Y-80314342D01*
X178809523Y-80314342D02*
X178761904Y-80409580D01*
X178761904Y-80409580D02*
X178714285Y-80457200D01*
X178714285Y-80457200D02*
X178619047Y-80504819D01*
X178619047Y-80504819D02*
X178333333Y-80504819D01*
X178333333Y-80504819D02*
X178238095Y-80457200D01*
X178238095Y-80457200D02*
X178190476Y-80409580D01*
X177238095Y-64454819D02*
X177238095Y-65264342D01*
X177238095Y-65264342D02*
X177285714Y-65359580D01*
X177285714Y-65359580D02*
X177333333Y-65407200D01*
X177333333Y-65407200D02*
X177428571Y-65454819D01*
X177428571Y-65454819D02*
X177619047Y-65454819D01*
X177619047Y-65454819D02*
X177714285Y-65407200D01*
X177714285Y-65407200D02*
X177761904Y-65359580D01*
X177761904Y-65359580D02*
X177809523Y-65264342D01*
X177809523Y-65264342D02*
X177809523Y-64454819D01*
X178238095Y-64550057D02*
X178285714Y-64502438D01*
X178285714Y-64502438D02*
X178380952Y-64454819D01*
X178380952Y-64454819D02*
X178619047Y-64454819D01*
X178619047Y-64454819D02*
X178714285Y-64502438D01*
X178714285Y-64502438D02*
X178761904Y-64550057D01*
X178761904Y-64550057D02*
X178809523Y-64645295D01*
X178809523Y-64645295D02*
X178809523Y-64740533D01*
X178809523Y-64740533D02*
X178761904Y-64883390D01*
X178761904Y-64883390D02*
X178190476Y-65454819D01*
X178190476Y-65454819D02*
X178809523Y-65454819D01*
X177238095Y-49454819D02*
X177238095Y-50264342D01*
X177238095Y-50264342D02*
X177285714Y-50359580D01*
X177285714Y-50359580D02*
X177333333Y-50407200D01*
X177333333Y-50407200D02*
X177428571Y-50454819D01*
X177428571Y-50454819D02*
X177619047Y-50454819D01*
X177619047Y-50454819D02*
X177714285Y-50407200D01*
X177714285Y-50407200D02*
X177761904Y-50359580D01*
X177761904Y-50359580D02*
X177809523Y-50264342D01*
X177809523Y-50264342D02*
X177809523Y-49454819D01*
X178809523Y-50454819D02*
X178238095Y-50454819D01*
X178523809Y-50454819D02*
X178523809Y-49454819D01*
X178523809Y-49454819D02*
X178428571Y-49597676D01*
X178428571Y-49597676D02*
X178333333Y-49692914D01*
X178333333Y-49692914D02*
X178238095Y-49740533D01*
X182761905Y-37956819D02*
X183333333Y-37956819D01*
X183047619Y-38956819D02*
X183047619Y-37956819D01*
X183666667Y-38956819D02*
X183666667Y-37956819D01*
X183666667Y-37956819D02*
X184047619Y-37956819D01*
X184047619Y-37956819D02*
X184142857Y-38004438D01*
X184142857Y-38004438D02*
X184190476Y-38052057D01*
X184190476Y-38052057D02*
X184238095Y-38147295D01*
X184238095Y-38147295D02*
X184238095Y-38290152D01*
X184238095Y-38290152D02*
X184190476Y-38385390D01*
X184190476Y-38385390D02*
X184142857Y-38433009D01*
X184142857Y-38433009D02*
X184047619Y-38480628D01*
X184047619Y-38480628D02*
X183666667Y-38480628D01*
X185190476Y-38956819D02*
X184619048Y-38956819D01*
X184904762Y-38956819D02*
X184904762Y-37956819D01*
X184904762Y-37956819D02*
X184809524Y-38099676D01*
X184809524Y-38099676D02*
X184714286Y-38194914D01*
X184714286Y-38194914D02*
X184619048Y-38242533D01*
X185809524Y-37956819D02*
X185904762Y-37956819D01*
X185904762Y-37956819D02*
X186000000Y-38004438D01*
X186000000Y-38004438D02*
X186047619Y-38052057D01*
X186047619Y-38052057D02*
X186095238Y-38147295D01*
X186095238Y-38147295D02*
X186142857Y-38337771D01*
X186142857Y-38337771D02*
X186142857Y-38575866D01*
X186142857Y-38575866D02*
X186095238Y-38766342D01*
X186095238Y-38766342D02*
X186047619Y-38861580D01*
X186047619Y-38861580D02*
X186000000Y-38909200D01*
X186000000Y-38909200D02*
X185904762Y-38956819D01*
X185904762Y-38956819D02*
X185809524Y-38956819D01*
X185809524Y-38956819D02*
X185714286Y-38909200D01*
X185714286Y-38909200D02*
X185666667Y-38861580D01*
X185666667Y-38861580D02*
X185619048Y-38766342D01*
X185619048Y-38766342D02*
X185571429Y-38575866D01*
X185571429Y-38575866D02*
X185571429Y-38337771D01*
X185571429Y-38337771D02*
X185619048Y-38147295D01*
X185619048Y-38147295D02*
X185666667Y-38052057D01*
X185666667Y-38052057D02*
X185714286Y-38004438D01*
X185714286Y-38004438D02*
X185809524Y-37956819D01*
X175738095Y-74456819D02*
X176309523Y-74456819D01*
X176023809Y-75456819D02*
X176023809Y-74456819D01*
X176642857Y-75456819D02*
X176642857Y-74456819D01*
X176642857Y-74456819D02*
X177023809Y-74456819D01*
X177023809Y-74456819D02*
X177119047Y-74504438D01*
X177119047Y-74504438D02*
X177166666Y-74552057D01*
X177166666Y-74552057D02*
X177214285Y-74647295D01*
X177214285Y-74647295D02*
X177214285Y-74790152D01*
X177214285Y-74790152D02*
X177166666Y-74885390D01*
X177166666Y-74885390D02*
X177119047Y-74933009D01*
X177119047Y-74933009D02*
X177023809Y-74980628D01*
X177023809Y-74980628D02*
X176642857Y-74980628D01*
X177690476Y-75456819D02*
X177880952Y-75456819D01*
X177880952Y-75456819D02*
X177976190Y-75409200D01*
X177976190Y-75409200D02*
X178023809Y-75361580D01*
X178023809Y-75361580D02*
X178119047Y-75218723D01*
X178119047Y-75218723D02*
X178166666Y-75028247D01*
X178166666Y-75028247D02*
X178166666Y-74647295D01*
X178166666Y-74647295D02*
X178119047Y-74552057D01*
X178119047Y-74552057D02*
X178071428Y-74504438D01*
X178071428Y-74504438D02*
X177976190Y-74456819D01*
X177976190Y-74456819D02*
X177785714Y-74456819D01*
X177785714Y-74456819D02*
X177690476Y-74504438D01*
X177690476Y-74504438D02*
X177642857Y-74552057D01*
X177642857Y-74552057D02*
X177595238Y-74647295D01*
X177595238Y-74647295D02*
X177595238Y-74885390D01*
X177595238Y-74885390D02*
X177642857Y-74980628D01*
X177642857Y-74980628D02*
X177690476Y-75028247D01*
X177690476Y-75028247D02*
X177785714Y-75075866D01*
X177785714Y-75075866D02*
X177976190Y-75075866D01*
X177976190Y-75075866D02*
X178071428Y-75028247D01*
X178071428Y-75028247D02*
X178119047Y-74980628D01*
X178119047Y-74980628D02*
X178166666Y-74885390D01*
X175238095Y-59956819D02*
X175809523Y-59956819D01*
X175523809Y-60956819D02*
X175523809Y-59956819D01*
X176142857Y-60956819D02*
X176142857Y-59956819D01*
X176142857Y-59956819D02*
X176523809Y-59956819D01*
X176523809Y-59956819D02*
X176619047Y-60004438D01*
X176619047Y-60004438D02*
X176666666Y-60052057D01*
X176666666Y-60052057D02*
X176714285Y-60147295D01*
X176714285Y-60147295D02*
X176714285Y-60290152D01*
X176714285Y-60290152D02*
X176666666Y-60385390D01*
X176666666Y-60385390D02*
X176619047Y-60433009D01*
X176619047Y-60433009D02*
X176523809Y-60480628D01*
X176523809Y-60480628D02*
X176142857Y-60480628D01*
X177285714Y-60385390D02*
X177190476Y-60337771D01*
X177190476Y-60337771D02*
X177142857Y-60290152D01*
X177142857Y-60290152D02*
X177095238Y-60194914D01*
X177095238Y-60194914D02*
X177095238Y-60147295D01*
X177095238Y-60147295D02*
X177142857Y-60052057D01*
X177142857Y-60052057D02*
X177190476Y-60004438D01*
X177190476Y-60004438D02*
X177285714Y-59956819D01*
X177285714Y-59956819D02*
X177476190Y-59956819D01*
X177476190Y-59956819D02*
X177571428Y-60004438D01*
X177571428Y-60004438D02*
X177619047Y-60052057D01*
X177619047Y-60052057D02*
X177666666Y-60147295D01*
X177666666Y-60147295D02*
X177666666Y-60194914D01*
X177666666Y-60194914D02*
X177619047Y-60290152D01*
X177619047Y-60290152D02*
X177571428Y-60337771D01*
X177571428Y-60337771D02*
X177476190Y-60385390D01*
X177476190Y-60385390D02*
X177285714Y-60385390D01*
X177285714Y-60385390D02*
X177190476Y-60433009D01*
X177190476Y-60433009D02*
X177142857Y-60480628D01*
X177142857Y-60480628D02*
X177095238Y-60575866D01*
X177095238Y-60575866D02*
X177095238Y-60766342D01*
X177095238Y-60766342D02*
X177142857Y-60861580D01*
X177142857Y-60861580D02*
X177190476Y-60909200D01*
X177190476Y-60909200D02*
X177285714Y-60956819D01*
X177285714Y-60956819D02*
X177476190Y-60956819D01*
X177476190Y-60956819D02*
X177571428Y-60909200D01*
X177571428Y-60909200D02*
X177619047Y-60861580D01*
X177619047Y-60861580D02*
X177666666Y-60766342D01*
X177666666Y-60766342D02*
X177666666Y-60575866D01*
X177666666Y-60575866D02*
X177619047Y-60480628D01*
X177619047Y-60480628D02*
X177571428Y-60433009D01*
X177571428Y-60433009D02*
X177476190Y-60385390D01*
X174238095Y-44956819D02*
X174809523Y-44956819D01*
X174523809Y-45956819D02*
X174523809Y-44956819D01*
X175142857Y-45956819D02*
X175142857Y-44956819D01*
X175142857Y-44956819D02*
X175523809Y-44956819D01*
X175523809Y-44956819D02*
X175619047Y-45004438D01*
X175619047Y-45004438D02*
X175666666Y-45052057D01*
X175666666Y-45052057D02*
X175714285Y-45147295D01*
X175714285Y-45147295D02*
X175714285Y-45290152D01*
X175714285Y-45290152D02*
X175666666Y-45385390D01*
X175666666Y-45385390D02*
X175619047Y-45433009D01*
X175619047Y-45433009D02*
X175523809Y-45480628D01*
X175523809Y-45480628D02*
X175142857Y-45480628D01*
X176047619Y-44956819D02*
X176714285Y-44956819D01*
X176714285Y-44956819D02*
X176285714Y-45956819D01*
X162738095Y-56956819D02*
X163309523Y-56956819D01*
X163023809Y-57956819D02*
X163023809Y-56956819D01*
X163642857Y-57956819D02*
X163642857Y-56956819D01*
X163642857Y-56956819D02*
X164023809Y-56956819D01*
X164023809Y-56956819D02*
X164119047Y-57004438D01*
X164119047Y-57004438D02*
X164166666Y-57052057D01*
X164166666Y-57052057D02*
X164214285Y-57147295D01*
X164214285Y-57147295D02*
X164214285Y-57290152D01*
X164214285Y-57290152D02*
X164166666Y-57385390D01*
X164166666Y-57385390D02*
X164119047Y-57433009D01*
X164119047Y-57433009D02*
X164023809Y-57480628D01*
X164023809Y-57480628D02*
X163642857Y-57480628D01*
X164547619Y-56956819D02*
X165166666Y-56956819D01*
X165166666Y-56956819D02*
X164833333Y-57337771D01*
X164833333Y-57337771D02*
X164976190Y-57337771D01*
X164976190Y-57337771D02*
X165071428Y-57385390D01*
X165071428Y-57385390D02*
X165119047Y-57433009D01*
X165119047Y-57433009D02*
X165166666Y-57528247D01*
X165166666Y-57528247D02*
X165166666Y-57766342D01*
X165166666Y-57766342D02*
X165119047Y-57861580D01*
X165119047Y-57861580D02*
X165071428Y-57909200D01*
X165071428Y-57909200D02*
X164976190Y-57956819D01*
X164976190Y-57956819D02*
X164690476Y-57956819D01*
X164690476Y-57956819D02*
X164595238Y-57909200D01*
X164595238Y-57909200D02*
X164547619Y-57861580D01*
X161238095Y-49954819D02*
X161809523Y-49954819D01*
X161523809Y-50954819D02*
X161523809Y-49954819D01*
X162142857Y-50954819D02*
X162142857Y-49954819D01*
X162142857Y-49954819D02*
X162523809Y-49954819D01*
X162523809Y-49954819D02*
X162619047Y-50002438D01*
X162619047Y-50002438D02*
X162666666Y-50050057D01*
X162666666Y-50050057D02*
X162714285Y-50145295D01*
X162714285Y-50145295D02*
X162714285Y-50288152D01*
X162714285Y-50288152D02*
X162666666Y-50383390D01*
X162666666Y-50383390D02*
X162619047Y-50431009D01*
X162619047Y-50431009D02*
X162523809Y-50478628D01*
X162523809Y-50478628D02*
X162142857Y-50478628D01*
X163095238Y-50050057D02*
X163142857Y-50002438D01*
X163142857Y-50002438D02*
X163238095Y-49954819D01*
X163238095Y-49954819D02*
X163476190Y-49954819D01*
X163476190Y-49954819D02*
X163571428Y-50002438D01*
X163571428Y-50002438D02*
X163619047Y-50050057D01*
X163619047Y-50050057D02*
X163666666Y-50145295D01*
X163666666Y-50145295D02*
X163666666Y-50240533D01*
X163666666Y-50240533D02*
X163619047Y-50383390D01*
X163619047Y-50383390D02*
X163047619Y-50954819D01*
X163047619Y-50954819D02*
X163666666Y-50954819D01*
X160238095Y-44456819D02*
X160809523Y-44456819D01*
X160523809Y-45456819D02*
X160523809Y-44456819D01*
X161142857Y-45456819D02*
X161142857Y-44456819D01*
X161142857Y-44456819D02*
X161523809Y-44456819D01*
X161523809Y-44456819D02*
X161619047Y-44504438D01*
X161619047Y-44504438D02*
X161666666Y-44552057D01*
X161666666Y-44552057D02*
X161714285Y-44647295D01*
X161714285Y-44647295D02*
X161714285Y-44790152D01*
X161714285Y-44790152D02*
X161666666Y-44885390D01*
X161666666Y-44885390D02*
X161619047Y-44933009D01*
X161619047Y-44933009D02*
X161523809Y-44980628D01*
X161523809Y-44980628D02*
X161142857Y-44980628D01*
X162666666Y-45456819D02*
X162095238Y-45456819D01*
X162380952Y-45456819D02*
X162380952Y-44456819D01*
X162380952Y-44456819D02*
X162285714Y-44599676D01*
X162285714Y-44599676D02*
X162190476Y-44694914D01*
X162190476Y-44694914D02*
X162095238Y-44742533D01*
X183333333Y-42954819D02*
X183000000Y-42478628D01*
X182761905Y-42954819D02*
X182761905Y-41954819D01*
X182761905Y-41954819D02*
X183142857Y-41954819D01*
X183142857Y-41954819D02*
X183238095Y-42002438D01*
X183238095Y-42002438D02*
X183285714Y-42050057D01*
X183285714Y-42050057D02*
X183333333Y-42145295D01*
X183333333Y-42145295D02*
X183333333Y-42288152D01*
X183333333Y-42288152D02*
X183285714Y-42383390D01*
X183285714Y-42383390D02*
X183238095Y-42431009D01*
X183238095Y-42431009D02*
X183142857Y-42478628D01*
X183142857Y-42478628D02*
X182761905Y-42478628D01*
X184190476Y-42288152D02*
X184190476Y-42954819D01*
X183952381Y-41907200D02*
X183714286Y-42621485D01*
X183714286Y-42621485D02*
X184333333Y-42621485D01*
D11*
X172332573Y-89791962D02*
X172405145Y-89646819D01*
X172405145Y-89646819D02*
X172550288Y-89501676D01*
X172550288Y-89501676D02*
X172768002Y-89283962D01*
X172768002Y-89283962D02*
X172840573Y-89138819D01*
X172840573Y-89138819D02*
X172840573Y-88993676D01*
X172477716Y-89066247D02*
X172550288Y-88921105D01*
X172550288Y-88921105D02*
X172695430Y-88775962D01*
X172695430Y-88775962D02*
X172985716Y-88703390D01*
X172985716Y-88703390D02*
X173493716Y-88703390D01*
X173493716Y-88703390D02*
X173784002Y-88775962D01*
X173784002Y-88775962D02*
X173929145Y-88921105D01*
X173929145Y-88921105D02*
X174001716Y-89066247D01*
X174001716Y-89066247D02*
X174001716Y-89356533D01*
X174001716Y-89356533D02*
X173929145Y-89501676D01*
X173929145Y-89501676D02*
X173784002Y-89646819D01*
X173784002Y-89646819D02*
X173493716Y-89719390D01*
X173493716Y-89719390D02*
X172985716Y-89719390D01*
X172985716Y-89719390D02*
X172695430Y-89646819D01*
X172695430Y-89646819D02*
X172550288Y-89501676D01*
X172550288Y-89501676D02*
X172477716Y-89356533D01*
X172477716Y-89356533D02*
X172477716Y-89066247D01*
X174001716Y-91025676D02*
X174001716Y-90735390D01*
X174001716Y-90735390D02*
X173929145Y-90590247D01*
X173929145Y-90590247D02*
X173856573Y-90517676D01*
X173856573Y-90517676D02*
X173638859Y-90372533D01*
X173638859Y-90372533D02*
X173348573Y-90299961D01*
X173348573Y-90299961D02*
X172768002Y-90299961D01*
X172768002Y-90299961D02*
X172622859Y-90372533D01*
X172622859Y-90372533D02*
X172550288Y-90445104D01*
X172550288Y-90445104D02*
X172477716Y-90590247D01*
X172477716Y-90590247D02*
X172477716Y-90880533D01*
X172477716Y-90880533D02*
X172550288Y-91025676D01*
X172550288Y-91025676D02*
X172622859Y-91098247D01*
X172622859Y-91098247D02*
X172768002Y-91170818D01*
X172768002Y-91170818D02*
X173130859Y-91170818D01*
X173130859Y-91170818D02*
X173276002Y-91098247D01*
X173276002Y-91098247D02*
X173348573Y-91025676D01*
X173348573Y-91025676D02*
X173421145Y-90880533D01*
X173421145Y-90880533D02*
X173421145Y-90590247D01*
X173421145Y-90590247D02*
X173348573Y-90445104D01*
X173348573Y-90445104D02*
X173276002Y-90372533D01*
X173276002Y-90372533D02*
X173130859Y-90299961D01*
X172554573Y-85291962D02*
X172627145Y-85146819D01*
X172627145Y-85146819D02*
X172772288Y-85001676D01*
X172772288Y-85001676D02*
X172990002Y-84783962D01*
X172990002Y-84783962D02*
X173062573Y-84638819D01*
X173062573Y-84638819D02*
X173062573Y-84493676D01*
X172699716Y-84566247D02*
X172772288Y-84421105D01*
X172772288Y-84421105D02*
X172917430Y-84275962D01*
X172917430Y-84275962D02*
X173207716Y-84203390D01*
X173207716Y-84203390D02*
X173715716Y-84203390D01*
X173715716Y-84203390D02*
X174006002Y-84275962D01*
X174006002Y-84275962D02*
X174151145Y-84421105D01*
X174151145Y-84421105D02*
X174223716Y-84566247D01*
X174223716Y-84566247D02*
X174223716Y-84856533D01*
X174223716Y-84856533D02*
X174151145Y-85001676D01*
X174151145Y-85001676D02*
X174006002Y-85146819D01*
X174006002Y-85146819D02*
X173715716Y-85219390D01*
X173715716Y-85219390D02*
X173207716Y-85219390D01*
X173207716Y-85219390D02*
X172917430Y-85146819D01*
X172917430Y-85146819D02*
X172772288Y-85001676D01*
X172772288Y-85001676D02*
X172699716Y-84856533D01*
X172699716Y-84856533D02*
X172699716Y-84566247D01*
X174223716Y-86598247D02*
X174223716Y-85872533D01*
X174223716Y-85872533D02*
X173498002Y-85799961D01*
X173498002Y-85799961D02*
X173570573Y-85872533D01*
X173570573Y-85872533D02*
X173643145Y-86017676D01*
X173643145Y-86017676D02*
X173643145Y-86380533D01*
X173643145Y-86380533D02*
X173570573Y-86525676D01*
X173570573Y-86525676D02*
X173498002Y-86598247D01*
X173498002Y-86598247D02*
X173352859Y-86670818D01*
X173352859Y-86670818D02*
X172990002Y-86670818D01*
X172990002Y-86670818D02*
X172844859Y-86598247D01*
X172844859Y-86598247D02*
X172772288Y-86525676D01*
X172772288Y-86525676D02*
X172699716Y-86380533D01*
X172699716Y-86380533D02*
X172699716Y-86017676D01*
X172699716Y-86017676D02*
X172772288Y-85872533D01*
X172772288Y-85872533D02*
X172844859Y-85799961D01*
X172454573Y-73095962D02*
X172527145Y-72950819D01*
X172527145Y-72950819D02*
X172672288Y-72805676D01*
X172672288Y-72805676D02*
X172890002Y-72587962D01*
X172890002Y-72587962D02*
X172962573Y-72442819D01*
X172962573Y-72442819D02*
X172962573Y-72297676D01*
X172599716Y-72370247D02*
X172672288Y-72225105D01*
X172672288Y-72225105D02*
X172817430Y-72079962D01*
X172817430Y-72079962D02*
X173107716Y-72007390D01*
X173107716Y-72007390D02*
X173615716Y-72007390D01*
X173615716Y-72007390D02*
X173906002Y-72079962D01*
X173906002Y-72079962D02*
X174051145Y-72225105D01*
X174051145Y-72225105D02*
X174123716Y-72370247D01*
X174123716Y-72370247D02*
X174123716Y-72660533D01*
X174123716Y-72660533D02*
X174051145Y-72805676D01*
X174051145Y-72805676D02*
X173906002Y-72950819D01*
X173906002Y-72950819D02*
X173615716Y-73023390D01*
X173615716Y-73023390D02*
X173107716Y-73023390D01*
X173107716Y-73023390D02*
X172817430Y-72950819D01*
X172817430Y-72950819D02*
X172672288Y-72805676D01*
X172672288Y-72805676D02*
X172599716Y-72660533D01*
X172599716Y-72660533D02*
X172599716Y-72370247D01*
X173615716Y-74329676D02*
X172599716Y-74329676D01*
X174196288Y-73966818D02*
X173107716Y-73603961D01*
X173107716Y-73603961D02*
X173107716Y-74547390D01*
X172854573Y-70045962D02*
X172927145Y-69900819D01*
X172927145Y-69900819D02*
X173072288Y-69755676D01*
X173072288Y-69755676D02*
X173290002Y-69537962D01*
X173290002Y-69537962D02*
X173362573Y-69392819D01*
X173362573Y-69392819D02*
X173362573Y-69247676D01*
X172999716Y-69320247D02*
X173072288Y-69175105D01*
X173072288Y-69175105D02*
X173217430Y-69029962D01*
X173217430Y-69029962D02*
X173507716Y-68957390D01*
X173507716Y-68957390D02*
X174015716Y-68957390D01*
X174015716Y-68957390D02*
X174306002Y-69029962D01*
X174306002Y-69029962D02*
X174451145Y-69175105D01*
X174451145Y-69175105D02*
X174523716Y-69320247D01*
X174523716Y-69320247D02*
X174523716Y-69610533D01*
X174523716Y-69610533D02*
X174451145Y-69755676D01*
X174451145Y-69755676D02*
X174306002Y-69900819D01*
X174306002Y-69900819D02*
X174015716Y-69973390D01*
X174015716Y-69973390D02*
X173507716Y-69973390D01*
X173507716Y-69973390D02*
X173217430Y-69900819D01*
X173217430Y-69900819D02*
X173072288Y-69755676D01*
X173072288Y-69755676D02*
X172999716Y-69610533D01*
X172999716Y-69610533D02*
X172999716Y-69320247D01*
X174523716Y-70481390D02*
X174523716Y-71424818D01*
X174523716Y-71424818D02*
X173943145Y-70916818D01*
X173943145Y-70916818D02*
X173943145Y-71134533D01*
X173943145Y-71134533D02*
X173870573Y-71279676D01*
X173870573Y-71279676D02*
X173798002Y-71352247D01*
X173798002Y-71352247D02*
X173652859Y-71424818D01*
X173652859Y-71424818D02*
X173290002Y-71424818D01*
X173290002Y-71424818D02*
X173144859Y-71352247D01*
X173144859Y-71352247D02*
X173072288Y-71279676D01*
X173072288Y-71279676D02*
X172999716Y-71134533D01*
X172999716Y-71134533D02*
X172999716Y-70699104D01*
X172999716Y-70699104D02*
X173072288Y-70553961D01*
X173072288Y-70553961D02*
X173144859Y-70481390D01*
X172454573Y-59545962D02*
X172527145Y-59400819D01*
X172527145Y-59400819D02*
X172672288Y-59255676D01*
X172672288Y-59255676D02*
X172890002Y-59037962D01*
X172890002Y-59037962D02*
X172962573Y-58892819D01*
X172962573Y-58892819D02*
X172962573Y-58747676D01*
X172599716Y-58820247D02*
X172672288Y-58675105D01*
X172672288Y-58675105D02*
X172817430Y-58529962D01*
X172817430Y-58529962D02*
X173107716Y-58457390D01*
X173107716Y-58457390D02*
X173615716Y-58457390D01*
X173615716Y-58457390D02*
X173906002Y-58529962D01*
X173906002Y-58529962D02*
X174051145Y-58675105D01*
X174051145Y-58675105D02*
X174123716Y-58820247D01*
X174123716Y-58820247D02*
X174123716Y-59110533D01*
X174123716Y-59110533D02*
X174051145Y-59255676D01*
X174051145Y-59255676D02*
X173906002Y-59400819D01*
X173906002Y-59400819D02*
X173615716Y-59473390D01*
X173615716Y-59473390D02*
X173107716Y-59473390D01*
X173107716Y-59473390D02*
X172817430Y-59400819D01*
X172817430Y-59400819D02*
X172672288Y-59255676D01*
X172672288Y-59255676D02*
X172599716Y-59110533D01*
X172599716Y-59110533D02*
X172599716Y-58820247D01*
X173978573Y-60053961D02*
X174051145Y-60126533D01*
X174051145Y-60126533D02*
X174123716Y-60271676D01*
X174123716Y-60271676D02*
X174123716Y-60634533D01*
X174123716Y-60634533D02*
X174051145Y-60779676D01*
X174051145Y-60779676D02*
X173978573Y-60852247D01*
X173978573Y-60852247D02*
X173833430Y-60924818D01*
X173833430Y-60924818D02*
X173688288Y-60924818D01*
X173688288Y-60924818D02*
X173470573Y-60852247D01*
X173470573Y-60852247D02*
X172599716Y-59981390D01*
X172599716Y-59981390D02*
X172599716Y-60924818D01*
X172632573Y-55291962D02*
X172705145Y-55146819D01*
X172705145Y-55146819D02*
X172850288Y-55001676D01*
X172850288Y-55001676D02*
X173068002Y-54783962D01*
X173068002Y-54783962D02*
X173140573Y-54638819D01*
X173140573Y-54638819D02*
X173140573Y-54493676D01*
X172777716Y-54566247D02*
X172850288Y-54421105D01*
X172850288Y-54421105D02*
X172995430Y-54275962D01*
X172995430Y-54275962D02*
X173285716Y-54203390D01*
X173285716Y-54203390D02*
X173793716Y-54203390D01*
X173793716Y-54203390D02*
X174084002Y-54275962D01*
X174084002Y-54275962D02*
X174229145Y-54421105D01*
X174229145Y-54421105D02*
X174301716Y-54566247D01*
X174301716Y-54566247D02*
X174301716Y-54856533D01*
X174301716Y-54856533D02*
X174229145Y-55001676D01*
X174229145Y-55001676D02*
X174084002Y-55146819D01*
X174084002Y-55146819D02*
X173793716Y-55219390D01*
X173793716Y-55219390D02*
X173285716Y-55219390D01*
X173285716Y-55219390D02*
X172995430Y-55146819D01*
X172995430Y-55146819D02*
X172850288Y-55001676D01*
X172850288Y-55001676D02*
X172777716Y-54856533D01*
X172777716Y-54856533D02*
X172777716Y-54566247D01*
X172777716Y-56670818D02*
X172777716Y-55799961D01*
X172777716Y-56235390D02*
X174301716Y-56235390D01*
X174301716Y-56235390D02*
X174084002Y-56090247D01*
X174084002Y-56090247D02*
X173938859Y-55945104D01*
X173938859Y-55945104D02*
X173866288Y-55799961D01*
D10*
X191238095Y-81454819D02*
X191238095Y-80454819D01*
X191238095Y-80931009D02*
X191809523Y-80931009D01*
X191809523Y-81454819D02*
X191809523Y-80454819D01*
X192190476Y-80454819D02*
X192809523Y-80454819D01*
X192809523Y-80454819D02*
X192476190Y-80835771D01*
X192476190Y-80835771D02*
X192619047Y-80835771D01*
X192619047Y-80835771D02*
X192714285Y-80883390D01*
X192714285Y-80883390D02*
X192761904Y-80931009D01*
X192761904Y-80931009D02*
X192809523Y-81026247D01*
X192809523Y-81026247D02*
X192809523Y-81264342D01*
X192809523Y-81264342D02*
X192761904Y-81359580D01*
X192761904Y-81359580D02*
X192714285Y-81407200D01*
X192714285Y-81407200D02*
X192619047Y-81454819D01*
X192619047Y-81454819D02*
X192333333Y-81454819D01*
X192333333Y-81454819D02*
X192238095Y-81407200D01*
X192238095Y-81407200D02*
X192190476Y-81359580D01*
X191238095Y-66454819D02*
X191238095Y-65454819D01*
X191238095Y-65931009D02*
X191809523Y-65931009D01*
X191809523Y-66454819D02*
X191809523Y-65454819D01*
X192238095Y-65550057D02*
X192285714Y-65502438D01*
X192285714Y-65502438D02*
X192380952Y-65454819D01*
X192380952Y-65454819D02*
X192619047Y-65454819D01*
X192619047Y-65454819D02*
X192714285Y-65502438D01*
X192714285Y-65502438D02*
X192761904Y-65550057D01*
X192761904Y-65550057D02*
X192809523Y-65645295D01*
X192809523Y-65645295D02*
X192809523Y-65740533D01*
X192809523Y-65740533D02*
X192761904Y-65883390D01*
X192761904Y-65883390D02*
X192190476Y-66454819D01*
X192190476Y-66454819D02*
X192809523Y-66454819D01*
X191238095Y-51454819D02*
X191238095Y-50454819D01*
X191238095Y-50931009D02*
X191809523Y-50931009D01*
X191809523Y-51454819D02*
X191809523Y-50454819D01*
X192809523Y-51454819D02*
X192238095Y-51454819D01*
X192523809Y-51454819D02*
X192523809Y-50454819D01*
X192523809Y-50454819D02*
X192428571Y-50597676D01*
X192428571Y-50597676D02*
X192333333Y-50692914D01*
X192333333Y-50692914D02*
X192238095Y-50740533D01*
X153333333Y-61859580D02*
X153285714Y-61907200D01*
X153285714Y-61907200D02*
X153142857Y-61954819D01*
X153142857Y-61954819D02*
X153047619Y-61954819D01*
X153047619Y-61954819D02*
X152904762Y-61907200D01*
X152904762Y-61907200D02*
X152809524Y-61811961D01*
X152809524Y-61811961D02*
X152761905Y-61716723D01*
X152761905Y-61716723D02*
X152714286Y-61526247D01*
X152714286Y-61526247D02*
X152714286Y-61383390D01*
X152714286Y-61383390D02*
X152761905Y-61192914D01*
X152761905Y-61192914D02*
X152809524Y-61097676D01*
X152809524Y-61097676D02*
X152904762Y-61002438D01*
X152904762Y-61002438D02*
X153047619Y-60954819D01*
X153047619Y-60954819D02*
X153142857Y-60954819D01*
X153142857Y-60954819D02*
X153285714Y-61002438D01*
X153285714Y-61002438D02*
X153333333Y-61050057D01*
X153714286Y-61050057D02*
X153761905Y-61002438D01*
X153761905Y-61002438D02*
X153857143Y-60954819D01*
X153857143Y-60954819D02*
X154095238Y-60954819D01*
X154095238Y-60954819D02*
X154190476Y-61002438D01*
X154190476Y-61002438D02*
X154238095Y-61050057D01*
X154238095Y-61050057D02*
X154285714Y-61145295D01*
X154285714Y-61145295D02*
X154285714Y-61240533D01*
X154285714Y-61240533D02*
X154238095Y-61383390D01*
X154238095Y-61383390D02*
X153666667Y-61954819D01*
X153666667Y-61954819D02*
X154285714Y-61954819D01*
X151859580Y-58166666D02*
X151907200Y-58214285D01*
X151907200Y-58214285D02*
X151954819Y-58357142D01*
X151954819Y-58357142D02*
X151954819Y-58452380D01*
X151954819Y-58452380D02*
X151907200Y-58595237D01*
X151907200Y-58595237D02*
X151811961Y-58690475D01*
X151811961Y-58690475D02*
X151716723Y-58738094D01*
X151716723Y-58738094D02*
X151526247Y-58785713D01*
X151526247Y-58785713D02*
X151383390Y-58785713D01*
X151383390Y-58785713D02*
X151192914Y-58738094D01*
X151192914Y-58738094D02*
X151097676Y-58690475D01*
X151097676Y-58690475D02*
X151002438Y-58595237D01*
X151002438Y-58595237D02*
X150954819Y-58452380D01*
X150954819Y-58452380D02*
X150954819Y-58357142D01*
X150954819Y-58357142D02*
X151002438Y-58214285D01*
X151002438Y-58214285D02*
X151050057Y-58166666D01*
X151954819Y-57214285D02*
X151954819Y-57785713D01*
X151954819Y-57499999D02*
X150954819Y-57499999D01*
X150954819Y-57499999D02*
X151097676Y-57595237D01*
X151097676Y-57595237D02*
X151192914Y-57690475D01*
X151192914Y-57690475D02*
X151240533Y-57785713D01*
G36*
X168200914Y-40946422D02*
G01*
X168206043Y-40994050D01*
X168217522Y-41042410D01*
X168244877Y-41074161D01*
X168286887Y-41082222D01*
X168865254Y-41082222D01*
X168915039Y-41087391D01*
X168961486Y-41100540D01*
X169006752Y-41121362D01*
X169047295Y-41149484D01*
X169052344Y-41153785D01*
X169086862Y-41189266D01*
X169114607Y-41229827D01*
X169125129Y-41250261D01*
X169142049Y-41298406D01*
X169150012Y-41347642D01*
X169151263Y-41378488D01*
X169147416Y-41431794D01*
X169135875Y-41479849D01*
X169113696Y-41527634D01*
X169089713Y-41560205D01*
X169051711Y-41593854D01*
X169006947Y-41616490D01*
X168955420Y-41628115D01*
X168923872Y-41629814D01*
X168873134Y-41621376D01*
X168842784Y-41605878D01*
X168812349Y-41567162D01*
X168807369Y-41535780D01*
X168818105Y-41486759D01*
X168830083Y-41469591D01*
X168874138Y-41445637D01*
X168889678Y-41444434D01*
X168932909Y-41453471D01*
X168971011Y-41473254D01*
X169007648Y-41496702D01*
X169045261Y-41515020D01*
X169078942Y-41479226D01*
X169084340Y-41470079D01*
X169099201Y-41420962D01*
X169101193Y-41388014D01*
X169093928Y-41337404D01*
X169078234Y-41305948D01*
X169041153Y-41270896D01*
X169016441Y-41258076D01*
X168968036Y-41243312D01*
X168928269Y-41236583D01*
X168876531Y-41231850D01*
X168827263Y-41230091D01*
X168811277Y-41229988D01*
X168293970Y-41229988D01*
X168253670Y-41238048D01*
X168225094Y-41270533D01*
X168209385Y-41317873D01*
X168208241Y-41323778D01*
X168201227Y-41372342D01*
X168200914Y-41376290D01*
X168150844Y-41376290D01*
X168150844Y-40946422D01*
X168200914Y-40946422D01*
G37*
G36*
X169120000Y-40357797D02*
G01*
X169120000Y-40820637D01*
X169069930Y-40820637D01*
X169065608Y-40769671D01*
X169064312Y-40756646D01*
X169057866Y-40707805D01*
X169055275Y-40696318D01*
X169033538Y-40663834D01*
X168988353Y-40652354D01*
X168519651Y-40652354D01*
X168519651Y-40823568D01*
X168463475Y-40823568D01*
X168463475Y-40785711D01*
X168459954Y-40736511D01*
X168448081Y-40687052D01*
X168433677Y-40652843D01*
X168408741Y-40610539D01*
X168376058Y-40573636D01*
X168369685Y-40568579D01*
X168369685Y-40511670D01*
X168420671Y-40513815D01*
X168472756Y-40515822D01*
X168521923Y-40517158D01*
X168572390Y-40517769D01*
X168578269Y-40517776D01*
X168979804Y-40517776D01*
X169022302Y-40507274D01*
X169049658Y-40476499D01*
X169061545Y-40427906D01*
X169063091Y-40418125D01*
X169069228Y-40368987D01*
X169069930Y-40357797D01*
X169120000Y-40357797D01*
G37*
G36*
X157438207Y-67995914D02*
G01*
X157390579Y-68001043D01*
X157342219Y-68012522D01*
X157310468Y-68039877D01*
X157302407Y-68081887D01*
X157302407Y-68660254D01*
X157297238Y-68710039D01*
X157284089Y-68756486D01*
X157263267Y-68801752D01*
X157235145Y-68842295D01*
X157230844Y-68847344D01*
X157195363Y-68881862D01*
X157154802Y-68909607D01*
X157134368Y-68920129D01*
X157086223Y-68937049D01*
X157036987Y-68945012D01*
X157006141Y-68946263D01*
X156952835Y-68942416D01*
X156904780Y-68930875D01*
X156856995Y-68908696D01*
X156824424Y-68884713D01*
X156790775Y-68846711D01*
X156768139Y-68801947D01*
X156756514Y-68750420D01*
X156754815Y-68718872D01*
X156763253Y-68668134D01*
X156778751Y-68637784D01*
X156817467Y-68607349D01*
X156848849Y-68602369D01*
X156897870Y-68613105D01*
X156915038Y-68625083D01*
X156938992Y-68669138D01*
X156940195Y-68684678D01*
X156931158Y-68727909D01*
X156911375Y-68766011D01*
X156887927Y-68802648D01*
X156869609Y-68840261D01*
X156905403Y-68873942D01*
X156914550Y-68879340D01*
X156963667Y-68894201D01*
X156996615Y-68896193D01*
X157047225Y-68888928D01*
X157078681Y-68873234D01*
X157113733Y-68836153D01*
X157126553Y-68811441D01*
X157141317Y-68763036D01*
X157148046Y-68723269D01*
X157152779Y-68671531D01*
X157154538Y-68622263D01*
X157154641Y-68606277D01*
X157154641Y-68088970D01*
X157146581Y-68048670D01*
X157114096Y-68020094D01*
X157066756Y-68004385D01*
X157060851Y-68003241D01*
X157012287Y-67996227D01*
X157008339Y-67995914D01*
X157008339Y-67945844D01*
X157438207Y-67945844D01*
X157438207Y-67995914D01*
G37*
G36*
X158190474Y-68915000D02*
G01*
X157546650Y-68915000D01*
X157546650Y-68821454D01*
X157582600Y-68787199D01*
X157598186Y-68774560D01*
X157639221Y-68743768D01*
X157676588Y-68717896D01*
X157719396Y-68691207D01*
X157742289Y-68678084D01*
X157786186Y-68653816D01*
X157829728Y-68630457D01*
X157875033Y-68605344D01*
X157913015Y-68580387D01*
X157949274Y-68547544D01*
X157966504Y-68526898D01*
X157989424Y-68482098D01*
X157991905Y-68474385D01*
X158000091Y-68424602D01*
X158001431Y-68384748D01*
X157995976Y-68331820D01*
X157977583Y-68286259D01*
X157955269Y-68260429D01*
X157913647Y-68234810D01*
X157863400Y-68222252D01*
X157837299Y-68220861D01*
X157788561Y-68226348D01*
X157752791Y-68238203D01*
X157710755Y-68265031D01*
X157692952Y-68286074D01*
X157704043Y-68333916D01*
X157704920Y-68337609D01*
X157712068Y-68387024D01*
X157712247Y-68395983D01*
X157691847Y-68440400D01*
X157690509Y-68441657D01*
X157644106Y-68460726D01*
X157626518Y-68461685D01*
X157579705Y-68444992D01*
X157573517Y-68438237D01*
X157555843Y-68391911D01*
X157554955Y-68375467D01*
X157563790Y-68327061D01*
X157575471Y-68301706D01*
X157604391Y-68261795D01*
X157634578Y-68233318D01*
X157676893Y-68205657D01*
X157724660Y-68184938D01*
X157728123Y-68183736D01*
X157778532Y-68170713D01*
X157828355Y-68165151D01*
X157848290Y-68164685D01*
X157899086Y-68166866D01*
X157953160Y-68174924D01*
X158001648Y-68188919D01*
X158050222Y-68212183D01*
X158071772Y-68226723D01*
X158107997Y-68260245D01*
X158136378Y-68304235D01*
X158151660Y-68354871D01*
X158154571Y-68392320D01*
X158150435Y-68442328D01*
X158139916Y-68482445D01*
X158116056Y-68527234D01*
X158092289Y-68554009D01*
X158052599Y-68586188D01*
X158009845Y-68611808D01*
X158006804Y-68613360D01*
X157958767Y-68636587D01*
X157910186Y-68658789D01*
X157864039Y-68679263D01*
X157857816Y-68681992D01*
X157810725Y-68703827D01*
X157766294Y-68726469D01*
X157746685Y-68737191D01*
X157702450Y-68763834D01*
X157662177Y-68793122D01*
X158190474Y-68793122D01*
X158190474Y-68915000D01*
G37*
G36*
X186495914Y-41056907D02*
G01*
X186501043Y-41104535D01*
X186512522Y-41152895D01*
X186539877Y-41184646D01*
X186581887Y-41192707D01*
X187160254Y-41192707D01*
X187210039Y-41197876D01*
X187256486Y-41211025D01*
X187301752Y-41231847D01*
X187342295Y-41259969D01*
X187347344Y-41264270D01*
X187381862Y-41299751D01*
X187409607Y-41340312D01*
X187420129Y-41360746D01*
X187437049Y-41408891D01*
X187445012Y-41458127D01*
X187446263Y-41488973D01*
X187442416Y-41542279D01*
X187430875Y-41590334D01*
X187408696Y-41638119D01*
X187384713Y-41670690D01*
X187346711Y-41704339D01*
X187301947Y-41726975D01*
X187250420Y-41738600D01*
X187218872Y-41740299D01*
X187168134Y-41731861D01*
X187137784Y-41716363D01*
X187107349Y-41677647D01*
X187102369Y-41646265D01*
X187113105Y-41597244D01*
X187125083Y-41580076D01*
X187169138Y-41556122D01*
X187184678Y-41554919D01*
X187227909Y-41563956D01*
X187266011Y-41583739D01*
X187302648Y-41607187D01*
X187340261Y-41625505D01*
X187373942Y-41589711D01*
X187379340Y-41580564D01*
X187394201Y-41531447D01*
X187396193Y-41498499D01*
X187388928Y-41447889D01*
X187373234Y-41416433D01*
X187336153Y-41381381D01*
X187311441Y-41368561D01*
X187263036Y-41353797D01*
X187223269Y-41347068D01*
X187171531Y-41342335D01*
X187122263Y-41340576D01*
X187106277Y-41340473D01*
X186588970Y-41340473D01*
X186548670Y-41348533D01*
X186520094Y-41381018D01*
X186504385Y-41428358D01*
X186503241Y-41434263D01*
X186496227Y-41482827D01*
X186495914Y-41486775D01*
X186445844Y-41486775D01*
X186445844Y-41056907D01*
X186495914Y-41056907D01*
G37*
G36*
X187665104Y-40689322D02*
G01*
X187662444Y-40740056D01*
X187653628Y-40790546D01*
X187648984Y-40807536D01*
X187631632Y-40854408D01*
X187607681Y-40897189D01*
X187605997Y-40899615D01*
X187572870Y-40937268D01*
X187543471Y-40958966D01*
X187496147Y-40977489D01*
X187470687Y-40979971D01*
X187422661Y-40969983D01*
X187410603Y-40963607D01*
X187384392Y-40921496D01*
X187383736Y-40910606D01*
X187394083Y-40861491D01*
X187403764Y-40847836D01*
X187447840Y-40826119D01*
X187449438Y-40826098D01*
X187498265Y-40832116D01*
X187504392Y-40833425D01*
X187552020Y-40844660D01*
X187568140Y-40827075D01*
X187586458Y-40795812D01*
X187602822Y-40749894D01*
X187608636Y-40700038D01*
X187608928Y-40681750D01*
X187603586Y-40631604D01*
X187595251Y-40602616D01*
X187572162Y-40558404D01*
X187552264Y-40535449D01*
X187511523Y-40504424D01*
X187479480Y-40488554D01*
X187431425Y-40475915D01*
X187378658Y-40471767D01*
X187370303Y-40471702D01*
X187320610Y-40475396D01*
X187298251Y-40479517D01*
X187251561Y-40497818D01*
X187235969Y-40508827D01*
X187204233Y-40547447D01*
X187195181Y-40566956D01*
X187183331Y-40614355D01*
X187180526Y-40659769D01*
X187180526Y-40749894D01*
X187102369Y-40749894D01*
X187102369Y-40690055D01*
X187098253Y-40640941D01*
X187082047Y-40592300D01*
X187050345Y-40553523D01*
X187003908Y-40527923D01*
X186953877Y-40515616D01*
X186900038Y-40511554D01*
X186893541Y-40511513D01*
X186844087Y-40515473D01*
X186795635Y-40530677D01*
X186764337Y-40552058D01*
X186734617Y-40593938D01*
X186721923Y-40644298D01*
X186720861Y-40666607D01*
X186726505Y-40716405D01*
X186729410Y-40725470D01*
X186745774Y-40762839D01*
X186766779Y-40791171D01*
X186783876Y-40807536D01*
X186832977Y-40796659D01*
X186836877Y-40795812D01*
X186885980Y-40789214D01*
X186896716Y-40788973D01*
X186941901Y-40810711D01*
X186960738Y-40856816D01*
X186961685Y-40874214D01*
X186944755Y-40920452D01*
X186936039Y-40927459D01*
X186888648Y-40943719D01*
X186876200Y-40944312D01*
X186827147Y-40934961D01*
X186804392Y-40924528D01*
X186764722Y-40895891D01*
X186736004Y-40865177D01*
X186707123Y-40821824D01*
X186686960Y-40776877D01*
X186684469Y-40769922D01*
X186671660Y-40721259D01*
X186665632Y-40671331D01*
X186664685Y-40639985D01*
X186667142Y-40590030D01*
X186675520Y-40541691D01*
X186689842Y-40500278D01*
X186713651Y-40456347D01*
X186745785Y-40417359D01*
X186750170Y-40413328D01*
X186790545Y-40384537D01*
X186823443Y-40370585D01*
X186872888Y-40359789D01*
X186889145Y-40358861D01*
X186938776Y-40363908D01*
X186958265Y-40368631D01*
X187005121Y-40388759D01*
X187022013Y-40400138D01*
X187058231Y-40434277D01*
X187080631Y-40463886D01*
X187104506Y-40508338D01*
X187121289Y-40555649D01*
X187123374Y-40563048D01*
X187134364Y-40563048D01*
X187142646Y-40512902D01*
X187151461Y-40480983D01*
X187170670Y-40434581D01*
X187191273Y-40402337D01*
X187227423Y-40365491D01*
X187262592Y-40342497D01*
X187308677Y-40325667D01*
X187360890Y-40319256D01*
X187373234Y-40319050D01*
X187427827Y-40324122D01*
X187477699Y-40339339D01*
X187522849Y-40364701D01*
X187563278Y-40400207D01*
X187584260Y-40425051D01*
X187611734Y-40466565D01*
X187633524Y-40511788D01*
X187649630Y-40560721D01*
X187660051Y-40613362D01*
X187664788Y-40669714D01*
X187665104Y-40689322D01*
G37*
G36*
X154625914Y-41040787D02*
G01*
X154631043Y-41088415D01*
X154642522Y-41136775D01*
X154669877Y-41168526D01*
X154711887Y-41176587D01*
X155290254Y-41176587D01*
X155340039Y-41181756D01*
X155386486Y-41194905D01*
X155431752Y-41215727D01*
X155472295Y-41243849D01*
X155477344Y-41248150D01*
X155511862Y-41283631D01*
X155539607Y-41324192D01*
X155550129Y-41344626D01*
X155567049Y-41392771D01*
X155575012Y-41442007D01*
X155576263Y-41472853D01*
X155572416Y-41526159D01*
X155560875Y-41574214D01*
X155538696Y-41621999D01*
X155514713Y-41654570D01*
X155476711Y-41688219D01*
X155431947Y-41710855D01*
X155380420Y-41722480D01*
X155348872Y-41724179D01*
X155298134Y-41715741D01*
X155267784Y-41700243D01*
X155237349Y-41661527D01*
X155232369Y-41630145D01*
X155243105Y-41581124D01*
X155255083Y-41563956D01*
X155299138Y-41540002D01*
X155314678Y-41538799D01*
X155357909Y-41547836D01*
X155396011Y-41567619D01*
X155432648Y-41591067D01*
X155470261Y-41609385D01*
X155503942Y-41573591D01*
X155509340Y-41564444D01*
X155524201Y-41515327D01*
X155526193Y-41482379D01*
X155518928Y-41431769D01*
X155503234Y-41400313D01*
X155466153Y-41365261D01*
X155441441Y-41352441D01*
X155393036Y-41337677D01*
X155353269Y-41330948D01*
X155301531Y-41326215D01*
X155252263Y-41324456D01*
X155236277Y-41324353D01*
X154718970Y-41324353D01*
X154678670Y-41332413D01*
X154650094Y-41364898D01*
X154634385Y-41412238D01*
X154633241Y-41418143D01*
X154626227Y-41466707D01*
X154625914Y-41470655D01*
X154575844Y-41470655D01*
X154575844Y-41040787D01*
X154625914Y-41040787D01*
G37*
G36*
X155220889Y-40428715D02*
G01*
X155256232Y-40391956D01*
X155296083Y-40363182D01*
X155313213Y-40353488D01*
X155359512Y-40335330D01*
X155408953Y-40326048D01*
X155454385Y-40323690D01*
X155508069Y-40327245D01*
X155558112Y-40337910D01*
X155604515Y-40355684D01*
X155647276Y-40380569D01*
X155686397Y-40412562D01*
X155698628Y-40424807D01*
X155731415Y-40464540D01*
X155757418Y-40508086D01*
X155776638Y-40555445D01*
X155789074Y-40606615D01*
X155794727Y-40661599D01*
X155795104Y-40680774D01*
X155792323Y-40731582D01*
X155782332Y-40785327D01*
X155765074Y-40834462D01*
X155740551Y-40878986D01*
X155736974Y-40884228D01*
X155702926Y-40924370D01*
X155661605Y-40953565D01*
X155611910Y-40966946D01*
X155602397Y-40967270D01*
X155554128Y-40957653D01*
X155540359Y-40950173D01*
X155514386Y-40907869D01*
X155513736Y-40897173D01*
X155525218Y-40848057D01*
X155535963Y-40834402D01*
X155580613Y-40812750D01*
X155583834Y-40812665D01*
X155633789Y-40818883D01*
X155640010Y-40820236D01*
X155687752Y-40831427D01*
X155689836Y-40831960D01*
X155703025Y-40814130D01*
X155719389Y-40784577D01*
X155732822Y-40741102D01*
X155738779Y-40691327D01*
X155738928Y-40680774D01*
X155732643Y-40630289D01*
X155721099Y-40597731D01*
X155693898Y-40555630D01*
X155668342Y-40531785D01*
X155624376Y-40504590D01*
X155580659Y-40487577D01*
X155532654Y-40477393D01*
X155483469Y-40473202D01*
X155456095Y-40472679D01*
X155404318Y-40476948D01*
X155352950Y-40491708D01*
X155308071Y-40517010D01*
X155295872Y-40526656D01*
X155262384Y-40563708D01*
X155239872Y-40612123D01*
X155232431Y-40663099D01*
X155232369Y-40668561D01*
X155237145Y-40718525D01*
X155251474Y-40765376D01*
X155254106Y-40771388D01*
X155280643Y-40813838D01*
X155316934Y-40849488D01*
X155326158Y-40856628D01*
X155307595Y-40902790D01*
X154810317Y-40844416D01*
X154810317Y-40352511D01*
X154932194Y-40352511D01*
X154932194Y-40788729D01*
X155222110Y-40824388D01*
X155195019Y-40780751D01*
X155176681Y-40743055D01*
X155160553Y-40693510D01*
X155154408Y-40643395D01*
X155154211Y-40632169D01*
X155158119Y-40581000D01*
X155168881Y-40531477D01*
X155169842Y-40528122D01*
X155188722Y-40479396D01*
X155214381Y-40437308D01*
X155220889Y-40428715D01*
G37*
D12*
%TO.C,J4-Vbat*%
X156410000Y-43790000D02*
X153590000Y-43790000D01*
X156410000Y-43790000D02*
X157710000Y-45490000D01*
X153590000Y-43790000D02*
X152290000Y-45490000D01*
X157710000Y-45490000D02*
X157710000Y-54210000D01*
X152290000Y-45490000D02*
X152290000Y-54210000D01*
X157710000Y-54210000D02*
X152290000Y-54210000D01*
%TO.C,R3*%
X178822936Y-83290000D02*
X183177064Y-83290000D01*
X178822936Y-86710000D02*
X183177064Y-86710000D01*
%TO.C,R2*%
X178822936Y-68290000D02*
X183177064Y-68290000D01*
X178822936Y-71710000D02*
X183177064Y-71710000D01*
%TO.C,R1*%
X178822936Y-53340000D02*
X183177064Y-53340000D01*
X178822936Y-56760000D02*
X183177064Y-56760000D01*
%TO.C,C5*%
X182140580Y-61490000D02*
X181859420Y-61490000D01*
X182140580Y-62510000D02*
X181859420Y-62510000D01*
%TO.C,C4*%
X182278080Y-77560000D02*
X181996920Y-77560000D01*
X182278080Y-76540000D02*
X181996920Y-76540000D01*
%TO.C,C3*%
X182415580Y-46490000D02*
X182134420Y-46490000D01*
X182415580Y-47510000D02*
X182134420Y-47510000D01*
D10*
%TO.C,U5*%
X154400000Y-60175000D02*
X157400000Y-60175000D01*
X154660000Y-56875000D02*
X157400000Y-56875000D01*
D12*
X154340000Y-56955000D02*
X153860000Y-56955000D01*
X154340000Y-56475000D01*
X154340000Y-56955000D01*
G36*
X154340000Y-56955000D02*
G01*
X153860000Y-56955000D01*
X154340000Y-56475000D01*
X154340000Y-56955000D01*
G37*
%TO.C,U4*%
X186500000Y-44940000D02*
X185850000Y-44940000D01*
X186500000Y-44940000D02*
X187150000Y-44940000D01*
X186500000Y-48060000D02*
X185850000Y-48060000D01*
X186500000Y-48060000D02*
X187150000Y-48060000D01*
X185337500Y-44990000D02*
X185097500Y-44660000D01*
X185577500Y-44660000D01*
X185337500Y-44990000D01*
G36*
X185337500Y-44990000D02*
G01*
X185097500Y-44660000D01*
X185577500Y-44660000D01*
X185337500Y-44990000D01*
G37*
%TO.C,U3*%
X181000000Y-78490000D02*
X180200000Y-78490000D01*
X181000000Y-78490000D02*
X181800000Y-78490000D01*
X181000000Y-81610000D02*
X180200000Y-81610000D01*
X181000000Y-81610000D02*
X181800000Y-81610000D01*
X179700000Y-78540000D02*
X179460000Y-78210000D01*
X179940000Y-78210000D01*
X179700000Y-78540000D01*
G36*
X179700000Y-78540000D02*
G01*
X179460000Y-78210000D01*
X179940000Y-78210000D01*
X179700000Y-78540000D01*
G37*
%TO.C,U2*%
X179700000Y-63490000D02*
X179460000Y-63160000D01*
X179940000Y-63160000D01*
X179700000Y-63490000D01*
G36*
X179700000Y-63490000D02*
G01*
X179460000Y-63160000D01*
X179940000Y-63160000D01*
X179700000Y-63490000D01*
G37*
X181000000Y-66560000D02*
X181800000Y-66560000D01*
X181000000Y-66560000D02*
X180200000Y-66560000D01*
X181000000Y-63440000D02*
X181800000Y-63440000D01*
X181000000Y-63440000D02*
X180200000Y-63440000D01*
%TO.C,U1*%
X181000000Y-48440000D02*
X180200000Y-48440000D01*
X181000000Y-48440000D02*
X181800000Y-48440000D01*
X181000000Y-51560000D02*
X180200000Y-51560000D01*
X181000000Y-51560000D02*
X181800000Y-51560000D01*
X179700000Y-48490000D02*
X179460000Y-48160000D01*
X179940000Y-48160000D01*
X179700000Y-48490000D01*
G36*
X179700000Y-48490000D02*
G01*
X179460000Y-48160000D01*
X179940000Y-48160000D01*
X179700000Y-48490000D01*
G37*
%TO.C,TP10*%
X185700000Y-40500000D02*
G75*
G02*
X183300000Y-40500000I-1200000J0D01*
G01*
X183300000Y-40500000D02*
G75*
G02*
X185700000Y-40500000I1200000J0D01*
G01*
%TO.C,TP9*%
X178200000Y-77000000D02*
G75*
G02*
X175800000Y-77000000I-1200000J0D01*
G01*
X175800000Y-77000000D02*
G75*
G02*
X178200000Y-77000000I1200000J0D01*
G01*
%TO.C,TP8*%
X177700000Y-62500000D02*
G75*
G02*
X175300000Y-62500000I-1200000J0D01*
G01*
X175300000Y-62500000D02*
G75*
G02*
X177700000Y-62500000I1200000J0D01*
G01*
%TO.C,TP7*%
X176700000Y-47500000D02*
G75*
G02*
X174300000Y-47500000I-1200000J0D01*
G01*
X174300000Y-47500000D02*
G75*
G02*
X176700000Y-47500000I1200000J0D01*
G01*
%TO.C,TP3*%
X165200000Y-59500000D02*
G75*
G02*
X162800000Y-59500000I-1200000J0D01*
G01*
X162800000Y-59500000D02*
G75*
G02*
X165200000Y-59500000I1200000J0D01*
G01*
%TO.C,TP2*%
X162200000Y-52500000D02*
G75*
G02*
X159800000Y-52500000I-1200000J0D01*
G01*
X159800000Y-52500000D02*
G75*
G02*
X162200000Y-52500000I1200000J0D01*
G01*
%TO.C,TP1*%
X162700000Y-47000000D02*
G75*
G02*
X160300000Y-47000000I-1200000J0D01*
G01*
X160300000Y-47000000D02*
G75*
G02*
X162700000Y-47000000I1200000J0D01*
G01*
%TO.C,R4*%
X183562258Y-44522500D02*
X183087742Y-44522500D01*
X183562258Y-43477500D02*
X183087742Y-43477500D01*
D11*
%TO.C,Q6*%
X169540030Y-86306500D02*
G75*
G02*
X169527970Y-86306500I-6030J0D01*
G01*
X169527970Y-86306500D02*
G75*
G02*
X169540030Y-86306500I6030J0D01*
G01*
D13*
X171460000Y-87400000D02*
X171460000Y-87640000D01*
X171460000Y-86360000D02*
X171460000Y-86600000D01*
X171100000Y-87640000D02*
X171460000Y-87640000D01*
X171100000Y-86360000D02*
X171460000Y-86360000D01*
X169785280Y-86360000D02*
X170225690Y-86360000D01*
X169540000Y-87640000D02*
X169900000Y-87640000D01*
X169540000Y-87400000D02*
X169540000Y-87640000D01*
X169540000Y-86581500D02*
X169540000Y-87046500D01*
%TO.C,Q5*%
X169640000Y-82581500D02*
X169640000Y-83046500D01*
X169640000Y-83400000D02*
X169640000Y-83640000D01*
X169640000Y-83640000D02*
X170000000Y-83640000D01*
X169885280Y-82360000D02*
X170325690Y-82360000D01*
X171200000Y-82360000D02*
X171560000Y-82360000D01*
X171200000Y-83640000D02*
X171560000Y-83640000D01*
X171560000Y-82360000D02*
X171560000Y-82600000D01*
X171560000Y-83400000D02*
X171560000Y-83640000D01*
D11*
X169640030Y-82306500D02*
G75*
G02*
X169627970Y-82306500I-6030J0D01*
G01*
X169627970Y-82306500D02*
G75*
G02*
X169640030Y-82306500I6030J0D01*
G01*
D13*
%TO.C,Q4*%
X169640000Y-71581500D02*
X169640000Y-72046500D01*
X169640000Y-72400000D02*
X169640000Y-72640000D01*
X169640000Y-72640000D02*
X170000000Y-72640000D01*
X169885280Y-71360000D02*
X170325690Y-71360000D01*
X171200000Y-71360000D02*
X171560000Y-71360000D01*
X171200000Y-72640000D02*
X171560000Y-72640000D01*
X171560000Y-71360000D02*
X171560000Y-71600000D01*
X171560000Y-72400000D02*
X171560000Y-72640000D01*
D11*
X169640030Y-71306500D02*
G75*
G02*
X169627970Y-71306500I-6030J0D01*
G01*
X169627970Y-71306500D02*
G75*
G02*
X169640030Y-71306500I6030J0D01*
G01*
D13*
%TO.C,Q3*%
X169640000Y-67581500D02*
X169640000Y-68046500D01*
X169640000Y-68400000D02*
X169640000Y-68640000D01*
X169640000Y-68640000D02*
X170000000Y-68640000D01*
X169885280Y-67360000D02*
X170325690Y-67360000D01*
X171200000Y-67360000D02*
X171560000Y-67360000D01*
X171200000Y-68640000D02*
X171560000Y-68640000D01*
X171560000Y-67360000D02*
X171560000Y-67600000D01*
X171560000Y-68400000D02*
X171560000Y-68640000D01*
D11*
X169640030Y-67306500D02*
G75*
G02*
X169627970Y-67306500I-6030J0D01*
G01*
X169627970Y-67306500D02*
G75*
G02*
X169640030Y-67306500I6030J0D01*
G01*
D13*
%TO.C,Q2*%
X169640000Y-56581500D02*
X169640000Y-57046500D01*
X169640000Y-57400000D02*
X169640000Y-57640000D01*
X169640000Y-57640000D02*
X170000000Y-57640000D01*
X169885280Y-56360000D02*
X170325690Y-56360000D01*
X171200000Y-56360000D02*
X171560000Y-56360000D01*
X171200000Y-57640000D02*
X171560000Y-57640000D01*
X171560000Y-56360000D02*
X171560000Y-56600000D01*
X171560000Y-57400000D02*
X171560000Y-57640000D01*
D11*
X169640030Y-56306500D02*
G75*
G02*
X169627970Y-56306500I-6030J0D01*
G01*
X169627970Y-56306500D02*
G75*
G02*
X169640030Y-56306500I6030J0D01*
G01*
%TO.C,Q1*%
X169840030Y-52306500D02*
G75*
G02*
X169827970Y-52306500I-6030J0D01*
G01*
X169827970Y-52306500D02*
G75*
G02*
X169840030Y-52306500I6030J0D01*
G01*
D13*
X171760000Y-53400000D02*
X171760000Y-53640000D01*
X171760000Y-52360000D02*
X171760000Y-52600000D01*
X171400000Y-53640000D02*
X171760000Y-53640000D01*
X171400000Y-52360000D02*
X171760000Y-52360000D01*
X170085280Y-52360000D02*
X170525690Y-52360000D01*
X169840000Y-53640000D02*
X170200000Y-53640000D01*
X169840000Y-53400000D02*
X169840000Y-53640000D01*
X169840000Y-52581500D02*
X169840000Y-53046500D01*
D12*
%TO.C,C2*%
X156640580Y-60990000D02*
X156359420Y-60990000D01*
X156640580Y-62010000D02*
X156359420Y-62010000D01*
%TO.C,C1*%
X153510000Y-57859420D02*
X153510000Y-58140580D01*
X152490000Y-57859420D02*
X152490000Y-58140580D01*
%TO.C,J1*%
X172745000Y-39645000D02*
X177885000Y-39645000D01*
X170145000Y-39645000D02*
X171475000Y-39645000D01*
X170145000Y-40975000D02*
X170145000Y-39645000D01*
X177885000Y-42305000D02*
X177885000Y-39645000D01*
X172745000Y-42305000D02*
X172745000Y-39645000D01*
X172745000Y-42305000D02*
X177885000Y-42305000D01*
%TO.C,J2*%
X161830000Y-65150000D02*
X161830000Y-77910000D01*
X159170000Y-77910000D02*
X161830000Y-77910000D01*
X159170000Y-65150000D02*
X161830000Y-65150000D01*
X159170000Y-65150000D02*
X159170000Y-77910000D01*
X159170000Y-63880000D02*
X159170000Y-62550000D01*
X159170000Y-62550000D02*
X160500000Y-62550000D01*
%TO.C,J3*%
X190730000Y-42330000D02*
X195870000Y-42330000D01*
X190730000Y-42330000D02*
X190730000Y-39670000D01*
X195870000Y-42330000D02*
X195870000Y-39670000D01*
X188130000Y-41000000D02*
X188130000Y-39670000D01*
X188130000Y-39670000D02*
X189460000Y-39670000D01*
X190730000Y-39670000D02*
X195870000Y-39670000D01*
%TO.C,J5*%
X156130000Y-42330000D02*
X156130000Y-41000000D01*
X157460000Y-42330000D02*
X156130000Y-42330000D01*
X158730000Y-42330000D02*
X161330000Y-42330000D01*
X158730000Y-42330000D02*
X158730000Y-39670000D01*
X161330000Y-42330000D02*
X161330000Y-39670000D01*
X158730000Y-39670000D02*
X161330000Y-39670000D01*
%TD*%
M02*
