M48
; DRILL file {KiCad 8.0.2} date 2024-06-01T20:15:08-0400
; FORMAT={-:-/ absolute / inch / decimal}
; #@! TF.CreationDate,2024-06-01T20:15:08-04:00
; #@! TF.GenerationSoftware,Kicad,Pcbnew,8.0.2
; #@! TF.FileFunction,Plated,1,4,PTH
FMAT,2
INCH
; #@! TA.AperFunction,Plated,PTH,ViaDrill
T1C0.0118
; #@! TA.AperFunction,Plated,PTH,ComponentDrill
T2C0.0394
; #@! TA.AperFunction,Plated,PTH,ComponentDrill
T3C0.1063
; #@! TA.AperFunction,Plated,PTH,ComponentDrill
T4C0.1181
%
G90
G05
T1
X6.0433Y-2.2047
X6.0433Y-2.3622
X6.122Y-2.2047
X6.122Y-2.2835
X6.122Y-2.3228
X6.1614Y-2.2835
X6.1614Y-2.3228
X6.2205Y-2.2047
X6.2402Y-2.3425
X6.2402Y-2.3819
X6.4961Y-1.7717
X6.4961Y-2.4016
X6.4961Y-2.9724
X6.5945Y-2.8346
X6.6142Y-2.0866
X6.6142Y-2.6772
X6.6142Y-3.4252
X6.6339Y-2.2441
X6.6339Y-3.248
X6.6929Y-2.0276
X6.6929Y-2.3031
X6.6929Y-2.6181
X6.6929Y-2.8937
X6.6929Y-3.2087
X6.6929Y-3.4843
X6.7126Y-2.0472
X6.7126Y-2.2835
X6.7126Y-2.6378
X6.7126Y-2.874
X6.7126Y-3.2283
X6.7126Y-3.4646
X6.7323Y-2.0276
X6.7323Y-2.3031
X6.7323Y-2.6181
X6.7323Y-2.8937
X6.7323Y-3.2087
X6.7323Y-3.4843
X6.752Y-2.0472
X6.752Y-2.2835
X6.752Y-2.6378
X6.752Y-2.874
X6.752Y-3.2283
X6.752Y-3.4646
X6.7717Y-2.0276
X6.7717Y-2.0669
X6.7717Y-2.2638
X6.7717Y-2.3031
X6.7717Y-2.6181
X6.7717Y-2.6575
X6.7717Y-2.8543
X6.7717Y-2.8937
X6.7717Y-3.2087
X6.7717Y-3.248
X6.7717Y-3.4449
X6.7717Y-3.4843
X6.9685Y-1.9291
X7.0079Y-2.5197
X7.0276Y-3.0906
X7.0866Y-1.8504
X7.0866Y-2.4409
X7.0866Y-3.0315
X7.3031Y-1.9291
X7.3031Y-2.4803
X7.3031Y-3.0906
X7.4213Y-1.8307
T2
X6.1992Y-1.6142
X6.2992Y-1.6142
X6.3189Y-2.515
X6.3189Y-2.615
X6.3189Y-2.715
X6.3189Y-2.815
X6.3189Y-2.915
X6.3189Y-3.015
X6.751Y-1.6132
X6.851Y-1.6132
X6.951Y-1.6132
X7.4591Y-1.6142
X7.5591Y-1.6142
X7.6591Y-1.6142
T3
X6.1024Y-1.8307
X6.1024Y-2.0276
T4
X7.5591Y-2.1654
X7.5591Y-2.7559
X7.5591Y-3.3465
M30
