%TF.GenerationSoftware,KiCad,Pcbnew,8.0.2*%
%TF.CreationDate,2024-06-01T20:14:58-04:00*%
%TF.ProjectId,small_compliant_drive,736d616c-6c5f-4636-9f6d-706c69616e74,rev?*%
%TF.SameCoordinates,Original*%
%TF.FileFunction,Copper,L1,Top*%
%TF.FilePolarity,Positive*%
%FSLAX46Y46*%
G04 Gerber Fmt 4.6, Leading zero omitted, Abs format (unit mm)*
G04 Created by KiCad (PCBNEW 8.0.2) date 2024-06-01 20:14:58*
%MOMM*%
%LPD*%
G01*
G04 APERTURE LIST*
G04 Aperture macros list*
%AMRoundRect*
0 Rectangle with rounded corners*
0 $1 Rounding radius*
0 $2 $3 $4 $5 $6 $7 $8 $9 X,Y pos of 4 corners*
0 Add a 4 corners polygon primitive as box body*
4,1,4,$2,$3,$4,$5,$6,$7,$8,$9,$2,$3,0*
0 Add four circle primitives for the rounded corners*
1,1,$1+$1,$2,$3*
1,1,$1+$1,$4,$5*
1,1,$1+$1,$6,$7*
1,1,$1+$1,$8,$9*
0 Add four rect primitives between the rounded corners*
20,1,$1+$1,$2,$3,$4,$5,0*
20,1,$1+$1,$4,$5,$6,$7,0*
20,1,$1+$1,$6,$7,$8,$9,0*
20,1,$1+$1,$8,$9,$2,$3,0*%
G04 Aperture macros list end*
%TA.AperFunction,ComponentPad*%
%ADD10R,3.800000X3.800000*%
%TD*%
%TA.AperFunction,ComponentPad*%
%ADD11C,3.800000*%
%TD*%
%TA.AperFunction,SMDPad,CuDef*%
%ADD12RoundRect,0.250000X-0.362500X-1.425000X0.362500X-1.425000X0.362500X1.425000X-0.362500X1.425000X0*%
%TD*%
%TA.AperFunction,SMDPad,CuDef*%
%ADD13RoundRect,0.225000X0.225000X0.250000X-0.225000X0.250000X-0.225000X-0.250000X0.225000X-0.250000X0*%
%TD*%
%TA.AperFunction,SMDPad,CuDef*%
%ADD14RoundRect,0.112500X-0.202500X-0.112500X0.202500X-0.112500X0.202500X0.112500X-0.202500X0.112500X0*%
%TD*%
%TA.AperFunction,SMDPad,CuDef*%
%ADD15R,0.800000X1.050000*%
%TD*%
%TA.AperFunction,SMDPad,CuDef*%
%ADD16RoundRect,0.150000X-0.587500X-0.150000X0.587500X-0.150000X0.587500X0.150000X-0.587500X0.150000X0*%
%TD*%
%TA.AperFunction,SMDPad,CuDef*%
%ADD17RoundRect,0.150000X-0.512500X-0.150000X0.512500X-0.150000X0.512500X0.150000X-0.512500X0.150000X0*%
%TD*%
%TA.AperFunction,SMDPad,CuDef*%
%ADD18C,2.000000*%
%TD*%
%TA.AperFunction,SMDPad,CuDef*%
%ADD19RoundRect,0.200000X0.200000X0.275000X-0.200000X0.275000X-0.200000X-0.275000X0.200000X-0.275000X0*%
%TD*%
%TA.AperFunction,SMDPad,CuDef*%
%ADD20RoundRect,0.067500X0.067500X0.387000X-0.067500X0.387000X-0.067500X-0.387000X0.067500X-0.387000X0*%
%TD*%
%TA.AperFunction,SMDPad,CuDef*%
%ADD21RoundRect,0.067500X0.067500X0.122500X-0.067500X0.122500X-0.067500X-0.122500X0.067500X-0.122500X0*%
%TD*%
%TA.AperFunction,ComponentPad*%
%ADD22C,6.000000*%
%TD*%
%TA.AperFunction,SMDPad,CuDef*%
%ADD23RoundRect,0.225000X-0.250000X0.225000X-0.250000X-0.225000X0.250000X-0.225000X0.250000X0.225000X0*%
%TD*%
%TA.AperFunction,ComponentPad*%
%ADD24O,1.700000X1.700000*%
%TD*%
%TA.AperFunction,ComponentPad*%
%ADD25R,1.700000X1.700000*%
%TD*%
%TA.AperFunction,ViaPad*%
%ADD26C,0.600000*%
%TD*%
%TA.AperFunction,Conductor*%
%ADD27C,0.200000*%
%TD*%
%TA.AperFunction,Conductor*%
%ADD28C,0.500000*%
%TD*%
G04 APERTURE END LIST*
D10*
%TO.P,J4-Vbat,1,Pin_1*%
%TO.N,Vbat*%
X155000000Y-46500000D03*
D11*
%TO.P,J4-Vbat,2,Pin_2*%
%TO.N,Common*%
X155000000Y-51500000D03*
%TD*%
D12*
%TO.P,R3,1*%
%TO.N,Net-(Q5-S1)*%
X178037500Y-85000000D03*
%TO.P,R3,2*%
%TO.N,VsensC*%
X183962500Y-85000000D03*
%TD*%
%TO.P,R2,1*%
%TO.N,Net-(Q3-S1)*%
X178037500Y-70000000D03*
%TO.P,R2,2*%
%TO.N,VsensB*%
X183962500Y-70000000D03*
%TD*%
%TO.P,R1,1*%
%TO.N,Net-(Q1-S1)*%
X178037500Y-55050000D03*
%TO.P,R1,2*%
%TO.N,VsensA*%
X183962500Y-55050000D03*
%TD*%
D13*
%TO.P,C5,2*%
%TO.N,Common*%
X181225000Y-62000000D03*
%TO.P,C5,1*%
%TO.N,3.3V*%
X182775000Y-62000000D03*
%TD*%
%TO.P,C4,1*%
%TO.N,3.3V*%
X182912500Y-77050000D03*
%TO.P,C4,2*%
%TO.N,Common*%
X181362500Y-77050000D03*
%TD*%
%TO.P,C3,2*%
%TO.N,Common*%
X181500000Y-47000000D03*
%TO.P,C3,1*%
%TO.N,3.3V*%
X183050000Y-47000000D03*
%TD*%
D14*
%TO.P,U5,1,IN*%
%TO.N,Vbat*%
X154560000Y-57575000D03*
%TO.P,U5,2,GND*%
%TO.N,Common*%
X154560000Y-58525000D03*
%TO.P,U5,3,EN*%
%TO.N,Vbat*%
X154560000Y-59475000D03*
%TO.P,U5,4,OUT*%
%TO.N,3.3V*%
X157240000Y-59475000D03*
%TO.P,U5,5,SNS*%
X157240000Y-58525000D03*
%TO.P,U5,6,IN*%
%TO.N,Vbat*%
X157240000Y-57575000D03*
D15*
%TO.P,U5,7,EP*%
%TO.N,Common*%
X155500000Y-58000000D03*
X155500000Y-59050000D03*
X156300000Y-58000000D03*
X156300000Y-59050000D03*
%TD*%
D16*
%TO.P,U4,1,K*%
%TO.N,Vref*%
X185562500Y-45550000D03*
%TO.P,U4,2,REF*%
X185562500Y-47450000D03*
%TO.P,U4,3,A*%
%TO.N,Common*%
X187437500Y-46500000D03*
%TD*%
D17*
%TO.P,U3,1*%
%TO.N,Ic*%
X179862500Y-79100000D03*
%TO.P,U3,2,GND*%
%TO.N,Common*%
X179862500Y-80050000D03*
%TO.P,U3,3,+*%
%TO.N,Net-(Q5-S1)*%
X179862500Y-81000000D03*
%TO.P,U3,4,-*%
%TO.N,VsensC*%
X182137500Y-81000000D03*
%TO.P,U3,5,REF*%
%TO.N,Vref*%
X182137500Y-80050000D03*
%TO.P,U3,6,V+*%
%TO.N,3.3V*%
X182137500Y-79100000D03*
%TD*%
%TO.P,U2,6,V+*%
%TO.N,3.3V*%
X182137500Y-64050000D03*
%TO.P,U2,5,REF*%
%TO.N,Vref*%
X182137500Y-65000000D03*
%TO.P,U2,4,-*%
%TO.N,VsensB*%
X182137500Y-65950000D03*
%TO.P,U2,3,+*%
%TO.N,Net-(Q3-S1)*%
X179862500Y-65950000D03*
%TO.P,U2,2,GND*%
%TO.N,Common*%
X179862500Y-65000000D03*
%TO.P,U2,1*%
%TO.N,Ib*%
X179862500Y-64050000D03*
%TD*%
%TO.P,U1,1*%
%TO.N,Ia*%
X179862500Y-49050000D03*
%TO.P,U1,2,GND*%
%TO.N,Common*%
X179862500Y-50000000D03*
%TO.P,U1,3,+*%
%TO.N,Net-(Q1-S1)*%
X179862500Y-50950000D03*
%TO.P,U1,4,-*%
%TO.N,VsensA*%
X182137500Y-50950000D03*
%TO.P,U1,5,REF*%
%TO.N,Vref*%
X182137500Y-50000000D03*
%TO.P,U1,6,V+*%
%TO.N,3.3V*%
X182137500Y-49050000D03*
%TD*%
D18*
%TO.P,TP10,1,1*%
%TO.N,Vref*%
X184500000Y-40500000D03*
%TD*%
%TO.P,TP9,1,1*%
%TO.N,Ic*%
X177000000Y-77000000D03*
%TD*%
%TO.P,TP8,1,1*%
%TO.N,Ib*%
X176500000Y-62500000D03*
%TD*%
%TO.P,TP7,1,1*%
%TO.N,Ia*%
X175500000Y-47500000D03*
%TD*%
%TO.P,TP3,1,1*%
%TO.N,3.3V*%
X164000000Y-59500000D03*
%TD*%
%TO.P,TP2,1,1*%
%TO.N,Common*%
X161000000Y-52500000D03*
%TD*%
%TO.P,TP1,1,1*%
%TO.N,Vbat*%
X161500000Y-47000000D03*
%TD*%
D19*
%TO.P,R4,1*%
%TO.N,Vref*%
X184150000Y-44000000D03*
%TO.P,R4,2*%
%TO.N,3.3V*%
X182500000Y-44000000D03*
%TD*%
D20*
%TO.P,Q6,5,D2*%
%TO.N,Net-(Q5-S1)*%
X171100000Y-87000000D03*
%TO.P,Q6,4,S1*%
%TO.N,Common*%
X170700000Y-87000000D03*
%TO.P,Q6,3,D1*%
%TO.N,Net-(Q5-S1)*%
X170300000Y-87000000D03*
D21*
%TO.P,Q6,2,Sub*%
%TO.N,Common*%
X169900000Y-87254000D03*
%TO.P,Q6,1,G*%
%TO.N,PHASE_C_LOW*%
X169900000Y-86746000D03*
%TD*%
%TO.P,Q5,1,G*%
%TO.N,PHASE_C_HIGH*%
X170000000Y-82746000D03*
%TO.P,Q5,2,Sub*%
%TO.N,Net-(Q5-S1)*%
X170000000Y-83254000D03*
D20*
%TO.P,Q5,3,D1*%
%TO.N,Vbat*%
X170400000Y-83000000D03*
%TO.P,Q5,4,S1*%
%TO.N,Net-(Q5-S1)*%
X170800000Y-83000000D03*
%TO.P,Q5,5,D2*%
%TO.N,Vbat*%
X171200000Y-83000000D03*
%TD*%
D21*
%TO.P,Q4,1,G*%
%TO.N,PHASE_B_LOW*%
X170000000Y-71746000D03*
%TO.P,Q4,2,Sub*%
%TO.N,Common*%
X170000000Y-72254000D03*
D20*
%TO.P,Q4,3,D1*%
%TO.N,Net-(Q3-S1)*%
X170400000Y-72000000D03*
%TO.P,Q4,4,S1*%
%TO.N,Common*%
X170800000Y-72000000D03*
%TO.P,Q4,5,D2*%
%TO.N,Net-(Q3-S1)*%
X171200000Y-72000000D03*
%TD*%
D21*
%TO.P,Q3,1,G*%
%TO.N,PHASE_B_HIGH*%
X170000000Y-67746000D03*
%TO.P,Q3,2,Sub*%
%TO.N,Net-(Q3-S1)*%
X170000000Y-68254000D03*
D20*
%TO.P,Q3,3,D1*%
%TO.N,Vbat*%
X170400000Y-68000000D03*
%TO.P,Q3,4,S1*%
%TO.N,Net-(Q3-S1)*%
X170800000Y-68000000D03*
%TO.P,Q3,5,D2*%
%TO.N,Vbat*%
X171200000Y-68000000D03*
%TD*%
D21*
%TO.P,Q2,1,G*%
%TO.N,PHASE_A_LOW*%
X170000000Y-56746000D03*
%TO.P,Q2,2,Sub*%
%TO.N,Common*%
X170000000Y-57254000D03*
D20*
%TO.P,Q2,3,D1*%
%TO.N,Net-(Q1-S1)*%
X170400000Y-57000000D03*
%TO.P,Q2,4,S1*%
%TO.N,Common*%
X170800000Y-57000000D03*
%TO.P,Q2,5,D2*%
%TO.N,Net-(Q1-S1)*%
X171200000Y-57000000D03*
%TD*%
%TO.P,Q1,5,D2*%
%TO.N,Vbat*%
X171400000Y-53000000D03*
%TO.P,Q1,4,S1*%
%TO.N,Net-(Q1-S1)*%
X171000000Y-53000000D03*
%TO.P,Q1,3,D1*%
%TO.N,Vbat*%
X170600000Y-53000000D03*
D21*
%TO.P,Q1,2,Sub*%
%TO.N,Net-(Q1-S1)*%
X170200000Y-53254000D03*
%TO.P,Q1,1,G*%
%TO.N,PHASE_A_HIGH*%
X170200000Y-52746000D03*
%TD*%
D22*
%TO.P,H3,1,1*%
%TO.N,VsensC*%
X192000000Y-85000000D03*
%TD*%
%TO.P,H2,1,1*%
%TO.N,VsensB*%
X192000000Y-70000000D03*
%TD*%
%TO.P,H1,1,1*%
%TO.N,VsensA*%
X192000000Y-55000000D03*
%TD*%
D13*
%TO.P,C2,2*%
%TO.N,Common*%
X155725000Y-61500000D03*
%TO.P,C2,1*%
%TO.N,3.3V*%
X157275000Y-61500000D03*
%TD*%
D23*
%TO.P,C1,1*%
%TO.N,Vbat*%
X153000000Y-57225000D03*
%TO.P,C1,2*%
%TO.N,Common*%
X153000000Y-58775000D03*
%TD*%
D24*
%TO.P,J1,3,Pin_3*%
%TO.N,Ic*%
X176555000Y-40975000D03*
%TO.P,J1,2,Pin_2*%
%TO.N,Ib*%
X174015000Y-40975000D03*
D25*
%TO.P,J1,1,Pin_1*%
%TO.N,Ia*%
X171475000Y-40975000D03*
%TD*%
D24*
%TO.P,J2,6,Pin_6*%
%TO.N,PHASE_C_LOW*%
X160500000Y-76580000D03*
%TO.P,J2,5,Pin_5*%
%TO.N,PHASE_C_HIGH*%
X160500000Y-74040000D03*
%TO.P,J2,4,Pin_4*%
%TO.N,PHASE_B_LOW*%
X160500000Y-71500000D03*
%TO.P,J2,3,Pin_3*%
%TO.N,PHASE_B_HIGH*%
X160500000Y-68960000D03*
%TO.P,J2,2,Pin_2*%
%TO.N,PHASE_A_LOW*%
X160500000Y-66420000D03*
D25*
%TO.P,J2,1,Pin_1*%
%TO.N,PHASE_A_HIGH*%
X160500000Y-63880000D03*
%TD*%
%TO.P,J3,1,Pin_1*%
%TO.N,VsensA*%
X189460000Y-41000000D03*
D24*
%TO.P,J3,2,Pin_2*%
%TO.N,VsensB*%
X192000000Y-41000000D03*
%TO.P,J3,3,Pin_3*%
%TO.N,VsensC*%
X194540000Y-41000000D03*
%TD*%
D25*
%TO.P,J5,1,Pin_1*%
%TO.N,Common*%
X157460000Y-41000000D03*
D24*
%TO.P,J5,2,Pin_2*%
X160000000Y-41000000D03*
%TD*%
D26*
%TO.N,3.3V*%
X165000000Y-75500000D03*
X158500000Y-60500000D03*
X158500000Y-59500000D03*
X165000000Y-45000000D03*
X165000000Y-61000000D03*
%TO.N,Vbat*%
X158000000Y-56000000D03*
X155500000Y-56000000D03*
X153500000Y-56000000D03*
%TO.N,Common*%
X156500000Y-59000000D03*
X155500000Y-59000000D03*
X155500000Y-58000000D03*
X156500000Y-58000000D03*
%TO.N,Vref*%
X185500000Y-63000000D03*
X185500000Y-78500000D03*
X185500000Y-49000000D03*
%TO.N,Common*%
X188500000Y-46500000D03*
%TO.N,Vbat*%
X153500000Y-60000000D03*
%TO.N,PHASE_C_LOW*%
X168000000Y-87000000D03*
%TO.N,PHASE_C_HIGH*%
X168500000Y-82500000D03*
%TO.N,PHASE_B_LOW*%
X167500000Y-72000000D03*
%TO.N,PHASE_B_HIGH*%
X168000000Y-68000000D03*
%TO.N,Common*%
X171000000Y-88500000D03*
X170000000Y-88500000D03*
X171500000Y-88000000D03*
X170500000Y-88000000D03*
X172000000Y-87500000D03*
X172000000Y-88500000D03*
%TO.N,Vbat*%
X170000000Y-81500000D03*
X171000000Y-81500000D03*
X171500000Y-82000000D03*
X170500000Y-82000000D03*
X172000000Y-81500000D03*
X172000000Y-82500000D03*
%TO.N,Common*%
X172000000Y-72500000D03*
X172000000Y-73500000D03*
X171000000Y-73500000D03*
X170000000Y-73500000D03*
X170500000Y-73000000D03*
X171500000Y-73000000D03*
%TO.N,Vbat*%
X172000000Y-67500000D03*
X170500000Y-67000000D03*
X171500000Y-67000000D03*
X172000000Y-66500000D03*
X171000000Y-66500000D03*
X170000000Y-66500000D03*
%TO.N,Common*%
X170500000Y-58000000D03*
X171500000Y-58000000D03*
%TO.N,Vbat*%
X172000000Y-52500000D03*
X171500000Y-52000000D03*
X170500000Y-52000000D03*
%TO.N,Common*%
X172000000Y-57500000D03*
X172000000Y-58500000D03*
X171000000Y-58500000D03*
X170000000Y-58500000D03*
%TO.N,PHASE_A_LOW*%
X168500000Y-57000000D03*
%TO.N,Vbat*%
X170000000Y-51500000D03*
%TO.N,PHASE_A_HIGH*%
X168000000Y-53000000D03*
%TO.N,Vbat*%
X172000000Y-51500000D03*
X171000000Y-51500000D03*
%TO.N,Common*%
X180000000Y-77000000D03*
X180000000Y-62000000D03*
X180000000Y-47000000D03*
%TO.N,Ic*%
X178500000Y-78500000D03*
%TO.N,Ia*%
X177000000Y-49000000D03*
%TO.N,Ib*%
X178000000Y-64000000D03*
%TD*%
D27*
%TO.N,Common*%
X160500000Y-52500000D02*
X159500000Y-51500000D01*
X161000000Y-52500000D02*
X160500000Y-52500000D01*
X159500000Y-51500000D02*
X155000000Y-51500000D01*
%TO.N,Vbat*%
X155500000Y-47000000D02*
X155000000Y-46500000D01*
X160500000Y-47000000D02*
X155500000Y-47000000D01*
D28*
%TO.N,3.3V*%
X165000000Y-75500000D02*
X164950000Y-75550000D01*
D27*
X163500000Y-44500000D02*
X164000000Y-44000000D01*
X158975000Y-58525000D02*
X163500000Y-54000000D01*
X163500000Y-54000000D02*
X163500000Y-44500000D01*
X164000000Y-44000000D02*
X182500000Y-44000000D01*
X157240000Y-58525000D02*
X158975000Y-58525000D01*
D28*
X165000000Y-60500000D02*
X164000000Y-59500000D01*
X165000000Y-61000000D02*
X165000000Y-60500000D01*
X180775000Y-60000000D02*
X166000000Y-60000000D01*
X166000000Y-60000000D02*
X165000000Y-61000000D01*
X182775000Y-62000000D02*
X180775000Y-60000000D01*
D27*
%TO.N,Vref*%
X184500000Y-43650000D02*
X184150000Y-44000000D01*
X184500000Y-40500000D02*
X184500000Y-43650000D01*
%TO.N,Common*%
X153250000Y-58525000D02*
X153000000Y-58775000D01*
%TO.N,Vref*%
X184150000Y-44137500D02*
X185562500Y-45550000D01*
X184150000Y-44000000D02*
X184150000Y-44137500D01*
D28*
%TO.N,3.3V*%
X182050000Y-44000000D02*
X182500000Y-44000000D01*
X181050000Y-45000000D02*
X182050000Y-44000000D01*
D27*
%TO.N,Common*%
X187437500Y-46500000D02*
X188500000Y-46500000D01*
%TO.N,Vref*%
X184012500Y-49000000D02*
X183012500Y-50000000D01*
X183012500Y-50000000D02*
X182137500Y-50000000D01*
X185500000Y-49000000D02*
X184012500Y-49000000D01*
X183950000Y-80050000D02*
X182137500Y-80050000D01*
X185500000Y-78500000D02*
X183950000Y-80050000D01*
X183500000Y-65000000D02*
X182137500Y-65000000D01*
X185500000Y-63000000D02*
X183500000Y-65000000D01*
X185500000Y-49000000D02*
X185562500Y-48937500D01*
X185562500Y-47450000D02*
X185500000Y-49000000D01*
X185562500Y-45550000D02*
X185562500Y-47450000D01*
%TO.N,Vbat*%
X154035000Y-60000000D02*
X154560000Y-59475000D01*
X153500000Y-60000000D02*
X154035000Y-60000000D01*
D28*
%TO.N,3.3V*%
X181050000Y-45000000D02*
X165000000Y-45000000D01*
X183050000Y-47000000D02*
X181050000Y-45000000D01*
X181412500Y-75550000D02*
X165000000Y-75500000D01*
X182912500Y-77050000D02*
X181412500Y-75550000D01*
D27*
%TO.N,PHASE_C_LOW*%
X168254000Y-86746000D02*
X168000000Y-87000000D01*
X169900000Y-86746000D02*
X168254000Y-86746000D01*
X168000000Y-87000000D02*
X168154000Y-87000000D01*
%TO.N,PHASE_C_HIGH*%
X169754000Y-82500000D02*
X168500000Y-82500000D01*
X170000000Y-82746000D02*
X169754000Y-82500000D01*
%TO.N,PHASE_B_LOW*%
X167754000Y-71746000D02*
X167500000Y-72000000D01*
X170000000Y-71746000D02*
X167754000Y-71746000D01*
%TO.N,PHASE_B_HIGH*%
X168254000Y-67746000D02*
X168000000Y-68000000D01*
X170000000Y-67746000D02*
X168254000Y-67746000D01*
%TO.N,PHASE_A_LOW*%
X168754000Y-56746000D02*
X168500000Y-57000000D01*
X170000000Y-56746000D02*
X168754000Y-56746000D01*
%TO.N,PHASE_A_HIGH*%
X168254000Y-52746000D02*
X168000000Y-53000000D01*
X170200000Y-52746000D02*
X168254000Y-52746000D01*
%TO.N,Common*%
X180000000Y-77000000D02*
X180050000Y-77050000D01*
X181362500Y-77050000D02*
X180000000Y-77000000D01*
X181225000Y-62000000D02*
X180000000Y-62000000D01*
X181500000Y-47000000D02*
X180000000Y-47000000D01*
%TO.N,Ic*%
X178500000Y-78500000D02*
X179100000Y-79100000D01*
%TO.N,Ia*%
X177000000Y-49000000D02*
X177050000Y-49050000D01*
%TO.N,Ib*%
X178000000Y-64000000D02*
X178050000Y-64050000D01*
X178050000Y-64050000D02*
X179862500Y-64050000D01*
X176500000Y-62500000D02*
X178000000Y-64000000D01*
%TO.N,Ic*%
X179100000Y-79100000D02*
X179862500Y-79100000D01*
X177000000Y-77000000D02*
X178500000Y-78500000D01*
D28*
%TO.N,3.3V*%
X182775000Y-63412500D02*
X182137500Y-64050000D01*
X182775000Y-62000000D02*
X182775000Y-63412500D01*
D27*
%TO.N,Common*%
X181000000Y-64524999D02*
X181000000Y-62225000D01*
X181000000Y-62225000D02*
X181225000Y-62000000D01*
X180524999Y-65000000D02*
X181000000Y-64524999D01*
X179862500Y-65000000D02*
X180524999Y-65000000D01*
D28*
%TO.N,3.3V*%
X183050000Y-47000000D02*
X183050000Y-48137500D01*
X183050000Y-48137500D02*
X182137500Y-49050000D01*
D27*
%TO.N,Common*%
X181000000Y-47500000D02*
X181500000Y-47000000D01*
X181000000Y-49524999D02*
X181000000Y-47500000D01*
X180524999Y-50000000D02*
X181000000Y-49524999D01*
X179862500Y-50000000D02*
X180524999Y-50000000D01*
%TO.N,Ia*%
X177050000Y-49050000D02*
X179862500Y-49050000D01*
X175500000Y-47500000D02*
X177000000Y-49000000D01*
%TO.N,Common*%
X181000000Y-79574999D02*
X181000000Y-77412500D01*
X180524999Y-80050000D02*
X181000000Y-79574999D01*
X179862500Y-80050000D02*
X180524999Y-80050000D01*
X181000000Y-77412500D02*
X181362500Y-77050000D01*
D28*
%TO.N,3.3V*%
X182912500Y-78325000D02*
X182912500Y-77050000D01*
X182137500Y-79100000D02*
X182912500Y-78325000D01*
D27*
%TO.N,VsensC*%
X182500000Y-85000000D02*
X183962500Y-85000000D01*
X182000000Y-81137500D02*
X182000000Y-84500000D01*
X182137500Y-81000000D02*
X182000000Y-81137500D01*
X182000000Y-84500000D02*
X182500000Y-85000000D01*
%TO.N,Net-(Q5-S1)*%
X179500000Y-85000000D02*
X178037500Y-85000000D01*
X180000000Y-84500000D02*
X179500000Y-85000000D01*
X180000000Y-81275000D02*
X180000000Y-84500000D01*
X179725000Y-81000000D02*
X180000000Y-81275000D01*
%TO.N,Net-(Q3-S1)*%
X179500000Y-70000000D02*
X178037500Y-70000000D01*
X180000000Y-66087500D02*
X180000000Y-69500000D01*
X180000000Y-69500000D02*
X179500000Y-70000000D01*
X179862500Y-65950000D02*
X180000000Y-66087500D01*
%TO.N,VsensB*%
X182500000Y-70000000D02*
X183962500Y-70000000D01*
X182000000Y-69500000D02*
X182500000Y-70000000D01*
X182000000Y-66087500D02*
X182000000Y-69500000D01*
X182137500Y-65950000D02*
X182000000Y-66087500D01*
%TO.N,VsensA*%
X182000000Y-54500000D02*
X182550000Y-55050000D01*
X182550000Y-55050000D02*
X183962500Y-55050000D01*
X182000000Y-51087500D02*
X182000000Y-54500000D01*
X182137500Y-50950000D02*
X182000000Y-51087500D01*
%TO.N,Net-(Q1-S1)*%
X179450000Y-55050000D02*
X178037500Y-55050000D01*
X180000000Y-54500000D02*
X179450000Y-55050000D01*
X180000000Y-51087500D02*
X180000000Y-54500000D01*
X179862500Y-50950000D02*
X180000000Y-51087500D01*
%TO.N,VsensA*%
X191500000Y-55000000D02*
X191450000Y-55050000D01*
X192000000Y-55000000D02*
X191500000Y-55000000D01*
%TO.N,VsensB*%
X192040000Y-70040000D02*
X192000000Y-70000000D01*
X191015000Y-69015000D02*
X192000000Y-70000000D01*
%TO.N,VsensA*%
X191950000Y-55050000D02*
X192000000Y-55000000D01*
%TD*%
%TA.AperFunction,Conductor*%
%TO.N,Net-(Q1-S1)*%
G36*
X171035271Y-53014352D02*
G01*
X171045893Y-53030249D01*
X171059990Y-53064283D01*
X171059992Y-53064286D01*
X171059994Y-53064291D01*
X171096620Y-53122581D01*
X171096621Y-53122582D01*
X171100507Y-53125339D01*
X171143854Y-53156096D01*
X171163808Y-53187850D01*
X171164500Y-53196058D01*
X171164500Y-53403540D01*
X171174248Y-53452551D01*
X171174249Y-53452552D01*
X171211378Y-53508121D01*
X171266947Y-53545250D01*
X171266950Y-53545252D01*
X171315955Y-53555000D01*
X171484044Y-53554999D01*
X171533050Y-53545252D01*
X171588621Y-53508121D01*
X171625752Y-53452550D01*
X171635500Y-53403545D01*
X171635500Y-53254500D01*
X171649852Y-53219852D01*
X171684500Y-53205500D01*
X171996781Y-53205500D01*
X171996787Y-53205500D01*
X172010220Y-53205060D01*
X172016616Y-53204641D01*
X172030007Y-53203323D01*
X172149840Y-53187546D01*
X172149848Y-53187544D01*
X172149851Y-53187544D01*
X172162661Y-53184995D01*
X172176207Y-53182301D01*
X172188563Y-53178990D01*
X172188569Y-53178988D01*
X172213994Y-53170357D01*
X172213998Y-53170355D01*
X172214014Y-53170350D01*
X172322680Y-53125339D01*
X172346789Y-53113449D01*
X172357867Y-53107053D01*
X172380217Y-53092119D01*
X172473536Y-53020512D01*
X172483060Y-53012160D01*
X172515368Y-53000000D01*
X178996787Y-53000000D01*
X179003182Y-53000418D01*
X179123017Y-53016195D01*
X179135368Y-53019505D01*
X179244040Y-53064518D01*
X179255116Y-53070913D01*
X179348435Y-53142520D01*
X179357479Y-53151564D01*
X179429086Y-53244883D01*
X179435482Y-53255961D01*
X179480493Y-53364627D01*
X179483804Y-53376983D01*
X179499581Y-53496817D01*
X179500000Y-53503213D01*
X179500000Y-56496786D01*
X179499581Y-56503182D01*
X179483804Y-56623016D01*
X179480493Y-56635372D01*
X179435482Y-56744038D01*
X179429086Y-56755116D01*
X179357479Y-56848435D01*
X179348435Y-56857479D01*
X179255116Y-56929086D01*
X179244038Y-56935482D01*
X179135372Y-56980493D01*
X179123016Y-56983804D01*
X179003183Y-56999581D01*
X178996787Y-57000000D01*
X172515369Y-57000000D01*
X172483061Y-56987840D01*
X172473545Y-56979495D01*
X172473536Y-56979487D01*
X172473529Y-56979482D01*
X172473514Y-56979469D01*
X172380216Y-56907879D01*
X172357878Y-56892952D01*
X172357862Y-56892943D01*
X172346805Y-56886558D01*
X172322675Y-56874657D01*
X172214023Y-56829652D01*
X172213989Y-56829639D01*
X172188586Y-56821016D01*
X172188567Y-56821010D01*
X172188566Y-56821009D01*
X172188564Y-56821009D01*
X172176213Y-56817699D01*
X172176201Y-56817696D01*
X172176178Y-56817691D01*
X172149852Y-56812454D01*
X172030005Y-56796675D01*
X172017476Y-56795443D01*
X172016586Y-56795356D01*
X172016584Y-56795355D01*
X172016565Y-56795354D01*
X172010207Y-56794938D01*
X171998903Y-56794569D01*
X171996787Y-56794500D01*
X171484499Y-56794500D01*
X171448664Y-56801628D01*
X171405858Y-56810142D01*
X171405848Y-56810145D01*
X171371215Y-56824491D01*
X171371210Y-56824493D01*
X171312921Y-56861118D01*
X171259996Y-56935704D01*
X171245891Y-56969754D01*
X171219371Y-56996271D01*
X171200622Y-57000000D01*
X171199377Y-57000000D01*
X171164729Y-56985648D01*
X171154107Y-56969752D01*
X171140006Y-56935710D01*
X171133455Y-56925284D01*
X171103380Y-56877419D01*
X171056142Y-56843901D01*
X171036191Y-56812147D01*
X171035499Y-56803940D01*
X171035499Y-56596458D01*
X171035499Y-56596456D01*
X171025752Y-56547450D01*
X170997749Y-56505540D01*
X170988621Y-56491878D01*
X170933049Y-56454747D01*
X170884046Y-56445000D01*
X170715959Y-56445000D01*
X170666948Y-56454748D01*
X170666947Y-56454749D01*
X170611378Y-56491878D01*
X170574247Y-56547450D01*
X170564500Y-56596451D01*
X170564500Y-56801628D01*
X170550148Y-56836276D01*
X170541570Y-56843117D01*
X170512921Y-56861118D01*
X170459996Y-56935704D01*
X170445891Y-56969754D01*
X170419371Y-56996271D01*
X170400622Y-57000000D01*
X170384785Y-57000000D01*
X170350137Y-56985648D01*
X170339007Y-56968475D01*
X170334426Y-56956473D01*
X170313590Y-56925290D01*
X170313588Y-56925288D01*
X170313585Y-56925284D01*
X170293029Y-56903541D01*
X170279654Y-56868504D01*
X170281304Y-56857199D01*
X170300500Y-56785562D01*
X170300500Y-56706438D01*
X170300500Y-56706436D01*
X170291843Y-56674134D01*
X170280021Y-56630011D01*
X170280020Y-56630009D01*
X170280020Y-56630008D01*
X170240459Y-56561488D01*
X170206673Y-56527702D01*
X170200583Y-56520282D01*
X170188621Y-56502379D01*
X170188618Y-56502377D01*
X170188616Y-56502374D01*
X170133049Y-56465247D01*
X170084048Y-56455500D01*
X170084045Y-56455500D01*
X170083332Y-56455500D01*
X170070649Y-56453830D01*
X170039564Y-56445500D01*
X170039562Y-56445500D01*
X169549000Y-56445500D01*
X169514352Y-56431148D01*
X169500000Y-56396500D01*
X169500000Y-53503213D01*
X169500419Y-53496817D01*
X169516195Y-53376980D01*
X169519504Y-53364633D01*
X169564520Y-53255955D01*
X169570913Y-53244883D01*
X169642522Y-53151561D01*
X169651561Y-53142522D01*
X169744885Y-53070911D01*
X169755959Y-53064518D01*
X169790455Y-53050230D01*
X169809206Y-53046500D01*
X170222445Y-53046500D01*
X170257093Y-53060852D01*
X170263933Y-53069429D01*
X170279564Y-53094306D01*
X170291598Y-53113458D01*
X170297331Y-53122581D01*
X170343856Y-53155593D01*
X170363808Y-53187346D01*
X170364500Y-53195554D01*
X170364500Y-53403540D01*
X170374248Y-53452551D01*
X170374249Y-53452552D01*
X170411378Y-53508121D01*
X170466947Y-53545250D01*
X170466950Y-53545252D01*
X170515955Y-53555000D01*
X170684044Y-53554999D01*
X170733050Y-53545252D01*
X170788621Y-53508121D01*
X170825752Y-53452550D01*
X170835500Y-53403545D01*
X170835499Y-53198370D01*
X170849851Y-53163723D01*
X170858427Y-53156883D01*
X170887084Y-53138877D01*
X170940007Y-53064288D01*
X170954106Y-53030248D01*
X170980624Y-53003730D01*
X170999376Y-53000000D01*
X171000623Y-53000000D01*
X171035271Y-53014352D01*
G37*
%TD.AperFunction*%
%TD*%
%TA.AperFunction,Conductor*%
%TO.N,VsensA*%
G36*
X194616551Y-49996860D02*
G01*
X194882777Y-50030437D01*
X194889387Y-50031737D01*
X195148494Y-50101529D01*
X195154856Y-50103722D01*
X195401921Y-50208402D01*
X195407931Y-50211451D01*
X195638303Y-50349046D01*
X195643838Y-50352892D01*
X195853154Y-50520798D01*
X195858104Y-50525364D01*
X196042388Y-50720393D01*
X196046669Y-50725598D01*
X196202457Y-50944078D01*
X196205983Y-50949822D01*
X196330312Y-51187603D01*
X196333017Y-51193775D01*
X196423546Y-51446374D01*
X196425378Y-51452860D01*
X196480389Y-51715490D01*
X196481314Y-51722166D01*
X196499884Y-51991549D01*
X196500000Y-51994919D01*
X196500000Y-57593836D01*
X196499869Y-57597414D01*
X196478937Y-57883324D01*
X196477895Y-57890403D01*
X196415937Y-58168468D01*
X196413875Y-58175320D01*
X196312080Y-58441398D01*
X196309042Y-58447876D01*
X196169582Y-58696287D01*
X196165633Y-58702254D01*
X195991480Y-58927710D01*
X195986704Y-58933038D01*
X195781575Y-59130724D01*
X195776074Y-59135300D01*
X195544340Y-59301004D01*
X195538231Y-59304730D01*
X195284839Y-59434915D01*
X195278253Y-59437712D01*
X195008592Y-59529610D01*
X195001669Y-59531417D01*
X194721508Y-59583060D01*
X194714395Y-59583840D01*
X194429700Y-59594130D01*
X194422549Y-59593866D01*
X194137597Y-59562385D01*
X194134056Y-59561862D01*
X185089277Y-57886903D01*
X184637482Y-57803237D01*
X184634167Y-57802503D01*
X184370601Y-57734502D01*
X184364155Y-57732353D01*
X184114088Y-57629192D01*
X184108003Y-57626172D01*
X183874617Y-57489418D01*
X183869007Y-57485585D01*
X183837493Y-57460679D01*
X183656775Y-57317857D01*
X183651759Y-57313293D01*
X183464760Y-57117814D01*
X183460418Y-57112593D01*
X183302266Y-56893138D01*
X183298686Y-56887364D01*
X183172413Y-56648149D01*
X183169665Y-56641935D01*
X183077687Y-56387533D01*
X183075831Y-56381015D01*
X183019927Y-56116332D01*
X183018990Y-56109631D01*
X183000118Y-55838063D01*
X183000000Y-55834666D01*
X183000000Y-54105998D01*
X183000112Y-54102688D01*
X183018031Y-53838044D01*
X183018920Y-53831504D01*
X183072018Y-53573303D01*
X183073786Y-53566927D01*
X183161202Y-53318251D01*
X183163803Y-53312194D01*
X183283953Y-53077550D01*
X183287349Y-53071896D01*
X183438026Y-52855600D01*
X183442152Y-52850456D01*
X183620611Y-52656446D01*
X183625400Y-52651899D01*
X183828382Y-52483716D01*
X183833737Y-52479858D01*
X184057533Y-52340576D01*
X184063362Y-52337473D01*
X184303904Y-52229624D01*
X184310086Y-52227341D01*
X184564554Y-52152435D01*
X184567757Y-52151608D01*
X194064507Y-50041220D01*
X194067786Y-50040609D01*
X194334816Y-50000294D01*
X194341511Y-49999750D01*
X194609828Y-49996480D01*
X194616551Y-49996860D01*
G37*
%TD.AperFunction*%
%TD*%
%TA.AperFunction,Conductor*%
%TO.N,Vbat*%
G36*
X172003182Y-51000418D02*
G01*
X172123017Y-51016195D01*
X172135368Y-51019505D01*
X172244040Y-51064518D01*
X172255116Y-51070913D01*
X172348435Y-51142520D01*
X172357479Y-51151564D01*
X172429086Y-51244883D01*
X172435482Y-51255961D01*
X172480493Y-51364627D01*
X172483804Y-51376983D01*
X172499581Y-51496817D01*
X172500000Y-51503213D01*
X172500000Y-52496786D01*
X172499581Y-52503182D01*
X172483804Y-52623016D01*
X172480493Y-52635372D01*
X172435482Y-52744038D01*
X172429086Y-52755116D01*
X172357479Y-52848435D01*
X172348435Y-52857479D01*
X172255116Y-52929086D01*
X172244038Y-52935482D01*
X172135372Y-52980493D01*
X172123016Y-52983804D01*
X172003183Y-52999581D01*
X171996787Y-53000000D01*
X171284499Y-53000000D01*
X171249851Y-52985648D01*
X171235499Y-52951000D01*
X171235499Y-52596458D01*
X171235499Y-52596456D01*
X171225752Y-52547450D01*
X171197749Y-52505540D01*
X171188621Y-52491878D01*
X171133049Y-52454747D01*
X171084046Y-52445000D01*
X170915959Y-52445000D01*
X170866948Y-52454748D01*
X170866947Y-52454749D01*
X170811378Y-52491878D01*
X170774247Y-52547450D01*
X170764500Y-52596451D01*
X170764500Y-52596454D01*
X170764500Y-52596455D01*
X170764500Y-52951001D01*
X170750149Y-52985648D01*
X170715501Y-53000000D01*
X170485210Y-53000000D01*
X170450562Y-52985648D01*
X170436210Y-52951000D01*
X170442774Y-52926502D01*
X170480021Y-52861989D01*
X170500500Y-52785562D01*
X170500500Y-52706438D01*
X170500500Y-52706436D01*
X170491843Y-52674134D01*
X170480021Y-52630011D01*
X170480020Y-52630009D01*
X170480020Y-52630008D01*
X170440459Y-52561488D01*
X170406673Y-52527702D01*
X170400583Y-52520282D01*
X170388621Y-52502379D01*
X170388618Y-52502377D01*
X170388616Y-52502374D01*
X170333049Y-52465247D01*
X170284048Y-52455500D01*
X170284045Y-52455500D01*
X170283332Y-52455500D01*
X170270649Y-52453830D01*
X170239564Y-52445500D01*
X170239562Y-52445500D01*
X169549000Y-52445500D01*
X169514352Y-52431148D01*
X169500000Y-52396500D01*
X169500000Y-51503213D01*
X169500419Y-51496817D01*
X169516195Y-51376983D01*
X169519504Y-51364633D01*
X169564520Y-51255955D01*
X169570913Y-51244883D01*
X169642522Y-51151561D01*
X169651561Y-51142522D01*
X169744885Y-51070911D01*
X169755955Y-51064520D01*
X169864633Y-51019504D01*
X169876980Y-51016195D01*
X169996817Y-51000418D01*
X170003213Y-51000000D01*
X171996787Y-51000000D01*
X172003182Y-51000418D01*
G37*
%TD.AperFunction*%
%TD*%
%TA.AperFunction,Conductor*%
%TO.N,Common*%
G36*
X170950149Y-57014352D02*
G01*
X170964500Y-57048998D01*
X170964501Y-57403544D01*
X170964502Y-57403548D01*
X170974248Y-57452551D01*
X170974249Y-57452552D01*
X171011378Y-57508121D01*
X171066947Y-57545250D01*
X171066950Y-57545252D01*
X171115955Y-57555000D01*
X171284044Y-57554999D01*
X171333050Y-57545252D01*
X171388621Y-57508121D01*
X171425752Y-57452550D01*
X171435500Y-57403545D01*
X171435499Y-57048998D01*
X171449851Y-57014352D01*
X171484499Y-57000000D01*
X171996787Y-57000000D01*
X172003182Y-57000418D01*
X172123017Y-57016195D01*
X172135368Y-57019505D01*
X172244040Y-57064518D01*
X172255116Y-57070913D01*
X172348435Y-57142520D01*
X172357479Y-57151564D01*
X172429086Y-57244883D01*
X172435482Y-57255961D01*
X172480493Y-57364627D01*
X172483804Y-57376983D01*
X172499581Y-57496817D01*
X172500000Y-57503213D01*
X172500000Y-58496786D01*
X172499581Y-58503182D01*
X172483804Y-58623016D01*
X172480493Y-58635372D01*
X172435482Y-58744038D01*
X172429086Y-58755116D01*
X172357479Y-58848435D01*
X172348435Y-58857479D01*
X172255116Y-58929086D01*
X172244038Y-58935482D01*
X172135372Y-58980493D01*
X172123016Y-58983804D01*
X172003183Y-58999581D01*
X171996787Y-59000000D01*
X170003213Y-59000000D01*
X169996817Y-58999581D01*
X169876983Y-58983804D01*
X169864627Y-58980493D01*
X169755961Y-58935482D01*
X169744883Y-58929086D01*
X169651564Y-58857479D01*
X169642520Y-58848435D01*
X169570913Y-58755116D01*
X169564517Y-58744038D01*
X169519505Y-58635368D01*
X169516195Y-58623016D01*
X169500419Y-58503182D01*
X169500000Y-58496786D01*
X169500000Y-57503213D01*
X169500419Y-57496817D01*
X169516195Y-57376980D01*
X169519504Y-57364633D01*
X169564520Y-57255955D01*
X169570913Y-57244883D01*
X169642522Y-57151561D01*
X169651561Y-57142522D01*
X169744885Y-57070911D01*
X169755959Y-57064518D01*
X169790455Y-57050230D01*
X169809206Y-57046500D01*
X170039564Y-57046500D01*
X170070653Y-57038169D01*
X170083336Y-57036499D01*
X170084041Y-57036499D01*
X170084044Y-57036499D01*
X170105943Y-57032143D01*
X170142723Y-57039460D01*
X170163559Y-57070643D01*
X170164500Y-57080202D01*
X170164500Y-57403540D01*
X170174248Y-57452551D01*
X170174249Y-57452552D01*
X170211378Y-57508121D01*
X170266947Y-57545250D01*
X170266950Y-57545252D01*
X170315955Y-57555000D01*
X170484044Y-57554999D01*
X170533050Y-57545252D01*
X170588621Y-57508121D01*
X170625752Y-57452550D01*
X170635500Y-57403545D01*
X170635499Y-57048998D01*
X170649851Y-57014352D01*
X170684499Y-57000000D01*
X170915501Y-57000000D01*
X170950149Y-57014352D01*
G37*
%TD.AperFunction*%
%TD*%
%TA.AperFunction,Conductor*%
%TO.N,Vbat*%
G36*
X172003182Y-66000418D02*
G01*
X172123017Y-66016195D01*
X172135368Y-66019505D01*
X172244040Y-66064518D01*
X172255116Y-66070913D01*
X172348435Y-66142520D01*
X172357479Y-66151564D01*
X172429086Y-66244883D01*
X172435482Y-66255961D01*
X172480493Y-66364627D01*
X172483804Y-66376983D01*
X172499581Y-66496817D01*
X172500000Y-66503213D01*
X172500000Y-67496786D01*
X172499581Y-67503182D01*
X172483804Y-67623016D01*
X172480493Y-67635371D01*
X172435481Y-67744040D01*
X172429086Y-67755116D01*
X172413576Y-67775329D01*
X172381099Y-67794081D01*
X172374703Y-67794500D01*
X172078944Y-67794500D01*
X172068870Y-67794859D01*
X172065787Y-67794969D01*
X172064042Y-67795000D01*
X171935958Y-67795000D01*
X171934213Y-67794969D01*
X171931129Y-67794859D01*
X171921056Y-67794500D01*
X171484499Y-67794500D01*
X171448664Y-67801628D01*
X171405858Y-67810142D01*
X171405848Y-67810145D01*
X171371215Y-67824491D01*
X171371210Y-67824493D01*
X171312921Y-67861118D01*
X171259996Y-67935704D01*
X171245891Y-67969754D01*
X171219371Y-67996271D01*
X171200622Y-68000000D01*
X171199377Y-68000000D01*
X171164729Y-67985648D01*
X171154107Y-67969752D01*
X171140006Y-67935710D01*
X171133455Y-67925284D01*
X171103380Y-67877419D01*
X171056142Y-67843901D01*
X171036191Y-67812147D01*
X171035499Y-67803940D01*
X171035499Y-67596458D01*
X171035499Y-67596456D01*
X171025752Y-67547450D01*
X170997749Y-67505540D01*
X170988621Y-67491878D01*
X170933049Y-67454747D01*
X170884046Y-67445000D01*
X170715959Y-67445000D01*
X170666948Y-67454748D01*
X170666947Y-67454749D01*
X170611378Y-67491878D01*
X170574247Y-67547450D01*
X170564500Y-67596451D01*
X170564500Y-67801628D01*
X170550148Y-67836276D01*
X170541570Y-67843117D01*
X170512921Y-67861118D01*
X170459996Y-67935704D01*
X170445891Y-67969754D01*
X170419371Y-67996271D01*
X170400622Y-68000000D01*
X170384785Y-68000000D01*
X170350137Y-67985648D01*
X170339007Y-67968475D01*
X170334426Y-67956473D01*
X170313590Y-67925290D01*
X170313588Y-67925288D01*
X170313585Y-67925284D01*
X170293029Y-67903541D01*
X170279654Y-67868504D01*
X170281304Y-67857199D01*
X170297971Y-67795000D01*
X170300500Y-67785563D01*
X170300500Y-67706436D01*
X170281457Y-67635371D01*
X170280021Y-67630011D01*
X170280020Y-67630009D01*
X170280020Y-67630008D01*
X170240459Y-67561488D01*
X170206673Y-67527702D01*
X170200583Y-67520282D01*
X170188621Y-67502379D01*
X170188618Y-67502377D01*
X170188616Y-67502374D01*
X170133049Y-67465247D01*
X170084048Y-67455500D01*
X170084045Y-67455500D01*
X170083332Y-67455500D01*
X170070649Y-67453830D01*
X170039564Y-67445500D01*
X170039562Y-67445500D01*
X169549000Y-67445500D01*
X169514352Y-67431148D01*
X169500000Y-67396500D01*
X169500000Y-66503213D01*
X169500419Y-66496817D01*
X169516195Y-66376983D01*
X169519504Y-66364633D01*
X169564520Y-66255955D01*
X169570913Y-66244883D01*
X169642522Y-66151561D01*
X169651561Y-66142522D01*
X169744885Y-66070911D01*
X169755955Y-66064520D01*
X169864633Y-66019504D01*
X169876980Y-66016195D01*
X169996817Y-66000418D01*
X170003213Y-66000000D01*
X171996787Y-66000000D01*
X172003182Y-66000418D01*
G37*
%TD.AperFunction*%
%TD*%
%TA.AperFunction,Conductor*%
%TO.N,Net-(Q3-S1)*%
G36*
X170950149Y-68014352D02*
G01*
X170964500Y-68048998D01*
X170964501Y-68403544D01*
X170964502Y-68403548D01*
X170974248Y-68452551D01*
X170974249Y-68452552D01*
X171011378Y-68508121D01*
X171066947Y-68545250D01*
X171066950Y-68545252D01*
X171115955Y-68555000D01*
X171284044Y-68554999D01*
X171333050Y-68545252D01*
X171388621Y-68508121D01*
X171425752Y-68452550D01*
X171435500Y-68403545D01*
X171435499Y-68048998D01*
X171449851Y-68014352D01*
X171484499Y-68000000D01*
X171921056Y-68000000D01*
X171928027Y-68000498D01*
X171928037Y-68000499D01*
X171928039Y-68000500D01*
X171928041Y-68000500D01*
X172071959Y-68000500D01*
X172071961Y-68000500D01*
X172071962Y-68000499D01*
X172071973Y-68000498D01*
X172078944Y-68000000D01*
X178996787Y-68000000D01*
X179003182Y-68000418D01*
X179123017Y-68016195D01*
X179135368Y-68019505D01*
X179244040Y-68064518D01*
X179255116Y-68070913D01*
X179348435Y-68142520D01*
X179357479Y-68151564D01*
X179429086Y-68244883D01*
X179435482Y-68255961D01*
X179480493Y-68364627D01*
X179483804Y-68376983D01*
X179499581Y-68496817D01*
X179500000Y-68503213D01*
X179500000Y-71496786D01*
X179499581Y-71503182D01*
X179483804Y-71623016D01*
X179480493Y-71635372D01*
X179435482Y-71744038D01*
X179429086Y-71755116D01*
X179357479Y-71848435D01*
X179348435Y-71857479D01*
X179255116Y-71929086D01*
X179244038Y-71935482D01*
X179135372Y-71980493D01*
X179123016Y-71983804D01*
X179003183Y-71999581D01*
X178996787Y-72000000D01*
X172078944Y-72000000D01*
X172071973Y-71999502D01*
X172071962Y-71999500D01*
X172071961Y-71999500D01*
X171928039Y-71999500D01*
X171928037Y-71999500D01*
X171928027Y-71999502D01*
X171921056Y-72000000D01*
X171084499Y-72000000D01*
X171049851Y-71985648D01*
X171035499Y-71951000D01*
X171035499Y-71596458D01*
X171035499Y-71596456D01*
X171025752Y-71547450D01*
X170997749Y-71505540D01*
X170988621Y-71491878D01*
X170933049Y-71454747D01*
X170884046Y-71445000D01*
X170715959Y-71445000D01*
X170666948Y-71454748D01*
X170666947Y-71454749D01*
X170611378Y-71491878D01*
X170574247Y-71547450D01*
X170564500Y-71596451D01*
X170564500Y-71596454D01*
X170564500Y-71596455D01*
X170564500Y-71951001D01*
X170550149Y-71985648D01*
X170515501Y-72000000D01*
X170285210Y-72000000D01*
X170250562Y-71985648D01*
X170236210Y-71951000D01*
X170242774Y-71926502D01*
X170280021Y-71861989D01*
X170300500Y-71785562D01*
X170300500Y-71706438D01*
X170300500Y-71706436D01*
X170291843Y-71674134D01*
X170280021Y-71630011D01*
X170280020Y-71630009D01*
X170280020Y-71630008D01*
X170240459Y-71561488D01*
X170206673Y-71527702D01*
X170200583Y-71520282D01*
X170188621Y-71502379D01*
X170188618Y-71502377D01*
X170188616Y-71502374D01*
X170133049Y-71465247D01*
X170084048Y-71455500D01*
X170084045Y-71455500D01*
X170083332Y-71455500D01*
X170070649Y-71453830D01*
X170039564Y-71445500D01*
X170039562Y-71445500D01*
X169549000Y-71445500D01*
X169514352Y-71431148D01*
X169500000Y-71396500D01*
X169500000Y-68503213D01*
X169500419Y-68496817D01*
X169516195Y-68376980D01*
X169519504Y-68364633D01*
X169564520Y-68255955D01*
X169570913Y-68244883D01*
X169642522Y-68151561D01*
X169651561Y-68142522D01*
X169744885Y-68070911D01*
X169755959Y-68064518D01*
X169790455Y-68050230D01*
X169809206Y-68046500D01*
X170039564Y-68046500D01*
X170070653Y-68038169D01*
X170083336Y-68036499D01*
X170084041Y-68036499D01*
X170084044Y-68036499D01*
X170105943Y-68032143D01*
X170142723Y-68039460D01*
X170163559Y-68070643D01*
X170164500Y-68080202D01*
X170164500Y-68403540D01*
X170174248Y-68452551D01*
X170174249Y-68452552D01*
X170211378Y-68508121D01*
X170266947Y-68545250D01*
X170266950Y-68545252D01*
X170315955Y-68555000D01*
X170484044Y-68554999D01*
X170533050Y-68545252D01*
X170588621Y-68508121D01*
X170625752Y-68452550D01*
X170635500Y-68403545D01*
X170635499Y-68048998D01*
X170649851Y-68014352D01*
X170684499Y-68000000D01*
X170915501Y-68000000D01*
X170950149Y-68014352D01*
G37*
%TD.AperFunction*%
%TD*%
%TA.AperFunction,Conductor*%
%TO.N,Common*%
G36*
X170835271Y-72014352D02*
G01*
X170845893Y-72030249D01*
X170859990Y-72064283D01*
X170859992Y-72064286D01*
X170859994Y-72064291D01*
X170896620Y-72122581D01*
X170943854Y-72156096D01*
X170963808Y-72187850D01*
X170964500Y-72196058D01*
X170964500Y-72403540D01*
X170974248Y-72452551D01*
X170974249Y-72452552D01*
X171011378Y-72508121D01*
X171066947Y-72545250D01*
X171066950Y-72545252D01*
X171115955Y-72555000D01*
X171284044Y-72554999D01*
X171333050Y-72545252D01*
X171388621Y-72508121D01*
X171425752Y-72452550D01*
X171435500Y-72403545D01*
X171435500Y-72254500D01*
X171449852Y-72219852D01*
X171484500Y-72205500D01*
X171921054Y-72205500D01*
X171921056Y-72205500D01*
X171933399Y-72205060D01*
X171934213Y-72205031D01*
X171935958Y-72205000D01*
X172064042Y-72205000D01*
X172065787Y-72205031D01*
X172066601Y-72205060D01*
X172078944Y-72205500D01*
X172078946Y-72205500D01*
X172374703Y-72205500D01*
X172409351Y-72219852D01*
X172413571Y-72224664D01*
X172429087Y-72244883D01*
X172435481Y-72255959D01*
X172480493Y-72364628D01*
X172483804Y-72376983D01*
X172499581Y-72496817D01*
X172500000Y-72503213D01*
X172500000Y-73496786D01*
X172499581Y-73503182D01*
X172483804Y-73623016D01*
X172480493Y-73635372D01*
X172435482Y-73744038D01*
X172429086Y-73755116D01*
X172357479Y-73848435D01*
X172348435Y-73857479D01*
X172255116Y-73929086D01*
X172244038Y-73935482D01*
X172135372Y-73980493D01*
X172123016Y-73983804D01*
X172003183Y-73999581D01*
X171996787Y-74000000D01*
X170003213Y-74000000D01*
X169996817Y-73999581D01*
X169876983Y-73983804D01*
X169864627Y-73980493D01*
X169755961Y-73935482D01*
X169744883Y-73929086D01*
X169651564Y-73857479D01*
X169642520Y-73848435D01*
X169570913Y-73755116D01*
X169564517Y-73744038D01*
X169519505Y-73635368D01*
X169516195Y-73623016D01*
X169500419Y-73503182D01*
X169500000Y-73496786D01*
X169500000Y-72503213D01*
X169500419Y-72496817D01*
X169516195Y-72376980D01*
X169519504Y-72364633D01*
X169564520Y-72255955D01*
X169570913Y-72244883D01*
X169642522Y-72151561D01*
X169651561Y-72142522D01*
X169744885Y-72070911D01*
X169755959Y-72064518D01*
X169790455Y-72050230D01*
X169809206Y-72046500D01*
X170022445Y-72046500D01*
X170057093Y-72060852D01*
X170063933Y-72069429D01*
X170097331Y-72122581D01*
X170143856Y-72155593D01*
X170163808Y-72187346D01*
X170164500Y-72195554D01*
X170164500Y-72403540D01*
X170174248Y-72452551D01*
X170174249Y-72452552D01*
X170211378Y-72508121D01*
X170266947Y-72545250D01*
X170266950Y-72545252D01*
X170315955Y-72555000D01*
X170484044Y-72554999D01*
X170533050Y-72545252D01*
X170588621Y-72508121D01*
X170625752Y-72452550D01*
X170635500Y-72403545D01*
X170635499Y-72198370D01*
X170649851Y-72163723D01*
X170658427Y-72156883D01*
X170687084Y-72138877D01*
X170740007Y-72064288D01*
X170754106Y-72030248D01*
X170780624Y-72003730D01*
X170799376Y-72000000D01*
X170800623Y-72000000D01*
X170835271Y-72014352D01*
G37*
%TD.AperFunction*%
%TD*%
%TA.AperFunction,Conductor*%
%TO.N,VsensB*%
G36*
X194607267Y-64846993D02*
G01*
X194873493Y-64880570D01*
X194880103Y-64881870D01*
X195139210Y-64951662D01*
X195145572Y-64953855D01*
X195392637Y-65058535D01*
X195398647Y-65061584D01*
X195629019Y-65199179D01*
X195634554Y-65203025D01*
X195843870Y-65370931D01*
X195848820Y-65375497D01*
X196033104Y-65570526D01*
X196037385Y-65575731D01*
X196193173Y-65794211D01*
X196196699Y-65799955D01*
X196321028Y-66037736D01*
X196323733Y-66043908D01*
X196414262Y-66296507D01*
X196416094Y-66302993D01*
X196471105Y-66565623D01*
X196472030Y-66572299D01*
X196490600Y-66841682D01*
X196490716Y-66845052D01*
X196490716Y-72443969D01*
X196490585Y-72447547D01*
X196469653Y-72733457D01*
X196468611Y-72740536D01*
X196406653Y-73018601D01*
X196404591Y-73025453D01*
X196302796Y-73291531D01*
X196299758Y-73298009D01*
X196160298Y-73546420D01*
X196156349Y-73552387D01*
X195982196Y-73777843D01*
X195977420Y-73783171D01*
X195772291Y-73980857D01*
X195766790Y-73985433D01*
X195535056Y-74151137D01*
X195528947Y-74154863D01*
X195275555Y-74285048D01*
X195268969Y-74287845D01*
X194999308Y-74379743D01*
X194992385Y-74381550D01*
X194712224Y-74433193D01*
X194705111Y-74433973D01*
X194420416Y-74444263D01*
X194413265Y-74443999D01*
X194128313Y-74412518D01*
X194124772Y-74411995D01*
X185079993Y-72737036D01*
X184628198Y-72653370D01*
X184624883Y-72652636D01*
X184361317Y-72584635D01*
X184354871Y-72582486D01*
X184104804Y-72479325D01*
X184098719Y-72476305D01*
X183865333Y-72339551D01*
X183859723Y-72335718D01*
X183828209Y-72310812D01*
X183647491Y-72167990D01*
X183642475Y-72163426D01*
X183455476Y-71967947D01*
X183451134Y-71962726D01*
X183292982Y-71743271D01*
X183289402Y-71737497D01*
X183163129Y-71498282D01*
X183160381Y-71492068D01*
X183068403Y-71237666D01*
X183066547Y-71231148D01*
X183010643Y-70966465D01*
X183009706Y-70959764D01*
X182990834Y-70688196D01*
X182990716Y-70684799D01*
X182990716Y-68956131D01*
X182990828Y-68952821D01*
X183008747Y-68688177D01*
X183009636Y-68681637D01*
X183062734Y-68423436D01*
X183064502Y-68417060D01*
X183151918Y-68168384D01*
X183154519Y-68162327D01*
X183274669Y-67927683D01*
X183278065Y-67922029D01*
X183428742Y-67705733D01*
X183432868Y-67700589D01*
X183611327Y-67506579D01*
X183616116Y-67502032D01*
X183819098Y-67333849D01*
X183824453Y-67329991D01*
X184048249Y-67190709D01*
X184054078Y-67187606D01*
X184294620Y-67079757D01*
X184300802Y-67077474D01*
X184555270Y-67002568D01*
X184558473Y-67001741D01*
X194055223Y-64891353D01*
X194058502Y-64890742D01*
X194325532Y-64850427D01*
X194332227Y-64849883D01*
X194600544Y-64846613D01*
X194607267Y-64846993D01*
G37*
%TD.AperFunction*%
%TD*%
%TA.AperFunction,Conductor*%
%TO.N,VsensC*%
G36*
X195107267Y-79846993D02*
G01*
X195373493Y-79880570D01*
X195380103Y-79881870D01*
X195639210Y-79951662D01*
X195645572Y-79953855D01*
X195892637Y-80058535D01*
X195898647Y-80061584D01*
X196129019Y-80199179D01*
X196134554Y-80203025D01*
X196343870Y-80370931D01*
X196348820Y-80375497D01*
X196533104Y-80570526D01*
X196537385Y-80575731D01*
X196693173Y-80794211D01*
X196696699Y-80799955D01*
X196821028Y-81037736D01*
X196823733Y-81043908D01*
X196914262Y-81296507D01*
X196916094Y-81302993D01*
X196971105Y-81565623D01*
X196972030Y-81572299D01*
X196990600Y-81841682D01*
X196990716Y-81845052D01*
X196990716Y-87443969D01*
X196990585Y-87447547D01*
X196969653Y-87733457D01*
X196968611Y-87740536D01*
X196906653Y-88018601D01*
X196904591Y-88025453D01*
X196802796Y-88291531D01*
X196799758Y-88298009D01*
X196660298Y-88546420D01*
X196656349Y-88552387D01*
X196482196Y-88777843D01*
X196477420Y-88783171D01*
X196272291Y-88980857D01*
X196266790Y-88985433D01*
X196035056Y-89151137D01*
X196028947Y-89154863D01*
X195775555Y-89285048D01*
X195768969Y-89287845D01*
X195499308Y-89379743D01*
X195492385Y-89381550D01*
X195212224Y-89433193D01*
X195205111Y-89433973D01*
X194920416Y-89444263D01*
X194913265Y-89443999D01*
X194628313Y-89412518D01*
X194624772Y-89411995D01*
X185579993Y-87737036D01*
X185128198Y-87653370D01*
X185124883Y-87652636D01*
X184861317Y-87584635D01*
X184854871Y-87582486D01*
X184604804Y-87479325D01*
X184598719Y-87476305D01*
X184365333Y-87339551D01*
X184359723Y-87335718D01*
X184328209Y-87310812D01*
X184147491Y-87167990D01*
X184142475Y-87163426D01*
X183955476Y-86967947D01*
X183951134Y-86962726D01*
X183792982Y-86743271D01*
X183789402Y-86737497D01*
X183663129Y-86498282D01*
X183660381Y-86492068D01*
X183568403Y-86237666D01*
X183566547Y-86231148D01*
X183510643Y-85966465D01*
X183509706Y-85959764D01*
X183490834Y-85688196D01*
X183490716Y-85684799D01*
X183490716Y-83956131D01*
X183490828Y-83952821D01*
X183508747Y-83688177D01*
X183509636Y-83681637D01*
X183562734Y-83423436D01*
X183564502Y-83417060D01*
X183651918Y-83168384D01*
X183654519Y-83162327D01*
X183774669Y-82927683D01*
X183778065Y-82922029D01*
X183928742Y-82705733D01*
X183932868Y-82700589D01*
X184111327Y-82506579D01*
X184116116Y-82502032D01*
X184319098Y-82333849D01*
X184324453Y-82329991D01*
X184548249Y-82190709D01*
X184554078Y-82187606D01*
X184794620Y-82079757D01*
X184800802Y-82077474D01*
X185055270Y-82002568D01*
X185058473Y-82001741D01*
X194555223Y-79891353D01*
X194558502Y-79890742D01*
X194825532Y-79850427D01*
X194832227Y-79849883D01*
X195100544Y-79846613D01*
X195107267Y-79846993D01*
G37*
%TD.AperFunction*%
%TD*%
%TA.AperFunction,Conductor*%
%TO.N,Net-(Q5-S1)*%
G36*
X170950149Y-83014352D02*
G01*
X170964500Y-83048998D01*
X170964501Y-83403544D01*
X170964502Y-83403548D01*
X170974248Y-83452551D01*
X170974249Y-83452552D01*
X171011378Y-83508121D01*
X171066947Y-83545250D01*
X171066950Y-83545252D01*
X171115955Y-83555000D01*
X171284044Y-83554999D01*
X171333050Y-83545252D01*
X171388621Y-83508121D01*
X171425752Y-83452550D01*
X171435500Y-83403545D01*
X171435499Y-83048998D01*
X171449851Y-83014352D01*
X171484499Y-83000000D01*
X171921056Y-83000000D01*
X171928027Y-83000498D01*
X171928037Y-83000499D01*
X171928039Y-83000500D01*
X171928041Y-83000500D01*
X172071959Y-83000500D01*
X172071961Y-83000500D01*
X172071962Y-83000499D01*
X172071973Y-83000498D01*
X172078944Y-83000000D01*
X178996787Y-83000000D01*
X179003182Y-83000418D01*
X179123017Y-83016195D01*
X179135368Y-83019505D01*
X179244040Y-83064518D01*
X179255116Y-83070913D01*
X179348435Y-83142520D01*
X179357479Y-83151564D01*
X179429086Y-83244883D01*
X179435482Y-83255961D01*
X179480493Y-83364627D01*
X179483804Y-83376983D01*
X179499581Y-83496817D01*
X179500000Y-83503213D01*
X179500000Y-86496786D01*
X179499581Y-86503182D01*
X179483804Y-86623016D01*
X179480493Y-86635372D01*
X179435482Y-86744038D01*
X179429086Y-86755116D01*
X179357479Y-86848435D01*
X179348435Y-86857479D01*
X179255116Y-86929086D01*
X179244038Y-86935482D01*
X179135372Y-86980493D01*
X179123016Y-86983804D01*
X179003183Y-86999581D01*
X178996787Y-87000000D01*
X172078944Y-87000000D01*
X172071973Y-86999502D01*
X172071962Y-86999500D01*
X172071961Y-86999500D01*
X171928039Y-86999500D01*
X171928037Y-86999500D01*
X171928027Y-86999502D01*
X171921056Y-87000000D01*
X170984499Y-87000000D01*
X170949851Y-86985648D01*
X170935499Y-86951000D01*
X170935499Y-86596458D01*
X170935499Y-86596456D01*
X170925752Y-86547450D01*
X170897749Y-86505540D01*
X170888621Y-86491878D01*
X170833049Y-86454747D01*
X170784046Y-86445000D01*
X170615959Y-86445000D01*
X170566948Y-86454748D01*
X170566947Y-86454749D01*
X170511378Y-86491878D01*
X170474247Y-86547450D01*
X170464500Y-86596451D01*
X170464500Y-86596454D01*
X170464500Y-86596455D01*
X170464500Y-86951001D01*
X170450149Y-86985648D01*
X170415501Y-87000000D01*
X170185210Y-87000000D01*
X170150562Y-86985648D01*
X170136210Y-86951000D01*
X170142774Y-86926502D01*
X170180021Y-86861989D01*
X170200500Y-86785562D01*
X170200500Y-86706438D01*
X170200500Y-86706436D01*
X170191843Y-86674134D01*
X170180021Y-86630011D01*
X170180020Y-86630009D01*
X170180020Y-86630008D01*
X170140459Y-86561488D01*
X170106673Y-86527702D01*
X170100583Y-86520282D01*
X170088621Y-86502379D01*
X170088618Y-86502377D01*
X170088616Y-86502374D01*
X170033049Y-86465247D01*
X169984048Y-86455500D01*
X169984045Y-86455500D01*
X169983332Y-86455500D01*
X169970649Y-86453830D01*
X169939564Y-86445500D01*
X169939562Y-86445500D01*
X169549000Y-86445500D01*
X169514352Y-86431148D01*
X169500000Y-86396500D01*
X169500000Y-83503213D01*
X169500419Y-83496817D01*
X169516195Y-83376980D01*
X169519504Y-83364633D01*
X169564520Y-83255955D01*
X169570913Y-83244883D01*
X169642522Y-83151561D01*
X169651561Y-83142522D01*
X169744886Y-83070910D01*
X169755954Y-83064520D01*
X169839833Y-83029776D01*
X169868141Y-83026989D01*
X169915955Y-83036500D01*
X169916657Y-83036499D01*
X169929345Y-83038168D01*
X169952361Y-83044335D01*
X169960437Y-83046500D01*
X169960438Y-83046500D01*
X170039564Y-83046500D01*
X170065835Y-83039460D01*
X170070654Y-83038168D01*
X170083336Y-83036499D01*
X170084041Y-83036499D01*
X170084044Y-83036499D01*
X170105943Y-83032143D01*
X170142723Y-83039460D01*
X170163559Y-83070643D01*
X170164500Y-83080202D01*
X170164500Y-83403540D01*
X170174248Y-83452551D01*
X170174249Y-83452552D01*
X170211378Y-83508121D01*
X170266947Y-83545250D01*
X170266950Y-83545252D01*
X170315955Y-83555000D01*
X170484044Y-83554999D01*
X170533050Y-83545252D01*
X170588621Y-83508121D01*
X170625752Y-83452550D01*
X170635500Y-83403545D01*
X170635499Y-83048998D01*
X170649851Y-83014352D01*
X170684499Y-83000000D01*
X170915501Y-83000000D01*
X170950149Y-83014352D01*
G37*
%TD.AperFunction*%
%TD*%
%TA.AperFunction,Conductor*%
%TO.N,Vbat*%
G36*
X172003182Y-81000418D02*
G01*
X172123017Y-81016195D01*
X172135368Y-81019505D01*
X172244040Y-81064518D01*
X172255116Y-81070913D01*
X172348435Y-81142520D01*
X172357479Y-81151564D01*
X172429086Y-81244883D01*
X172435482Y-81255961D01*
X172480493Y-81364627D01*
X172483804Y-81376983D01*
X172499581Y-81496817D01*
X172500000Y-81503213D01*
X172500000Y-82496786D01*
X172499581Y-82503182D01*
X172483804Y-82623016D01*
X172480493Y-82635371D01*
X172435481Y-82744040D01*
X172429086Y-82755116D01*
X172413576Y-82775329D01*
X172381099Y-82794081D01*
X172374703Y-82794500D01*
X172078944Y-82794500D01*
X172068870Y-82794859D01*
X172065787Y-82794969D01*
X172064042Y-82795000D01*
X171935958Y-82795000D01*
X171934213Y-82794969D01*
X171931129Y-82794859D01*
X171921056Y-82794500D01*
X171484499Y-82794500D01*
X171448664Y-82801628D01*
X171405858Y-82810142D01*
X171405848Y-82810145D01*
X171371215Y-82824491D01*
X171371210Y-82824493D01*
X171312921Y-82861118D01*
X171259996Y-82935704D01*
X171245891Y-82969754D01*
X171219371Y-82996271D01*
X171200622Y-83000000D01*
X171199377Y-83000000D01*
X171164729Y-82985648D01*
X171154107Y-82969752D01*
X171140006Y-82935710D01*
X171133455Y-82925284D01*
X171103380Y-82877419D01*
X171056142Y-82843901D01*
X171036191Y-82812147D01*
X171035499Y-82803940D01*
X171035499Y-82596458D01*
X171035499Y-82596456D01*
X171025752Y-82547450D01*
X171025750Y-82547447D01*
X170988621Y-82491878D01*
X170933049Y-82454747D01*
X170884046Y-82445000D01*
X170715959Y-82445000D01*
X170666948Y-82454748D01*
X170666947Y-82454749D01*
X170611378Y-82491878D01*
X170574247Y-82547450D01*
X170564500Y-82596451D01*
X170564500Y-82801628D01*
X170550148Y-82836276D01*
X170541570Y-82843117D01*
X170512921Y-82861118D01*
X170459996Y-82935704D01*
X170445891Y-82969754D01*
X170419371Y-82996271D01*
X170400622Y-83000000D01*
X170384785Y-83000000D01*
X170350137Y-82985648D01*
X170339007Y-82968475D01*
X170334426Y-82956473D01*
X170313590Y-82925290D01*
X170313588Y-82925288D01*
X170313585Y-82925284D01*
X170293029Y-82903540D01*
X170279655Y-82868503D01*
X170281306Y-82857196D01*
X170300500Y-82785564D01*
X170300500Y-82706435D01*
X170300499Y-82706434D01*
X170280022Y-82630013D01*
X170280021Y-82630010D01*
X170240459Y-82561488D01*
X170206673Y-82527702D01*
X170200583Y-82520282D01*
X170188621Y-82502379D01*
X170188618Y-82502377D01*
X170188618Y-82502376D01*
X170170719Y-82490417D01*
X170163294Y-82484323D01*
X169938511Y-82259540D01*
X169869990Y-82219979D01*
X169793564Y-82199500D01*
X169793562Y-82199500D01*
X169549000Y-82199500D01*
X169514352Y-82185148D01*
X169500000Y-82150500D01*
X169500000Y-81503213D01*
X169500419Y-81496817D01*
X169516195Y-81376983D01*
X169519504Y-81364633D01*
X169564520Y-81255955D01*
X169570913Y-81244883D01*
X169642522Y-81151561D01*
X169651561Y-81142522D01*
X169744885Y-81070911D01*
X169755955Y-81064520D01*
X169864633Y-81019504D01*
X169876980Y-81016195D01*
X169996817Y-81000418D01*
X170003213Y-81000000D01*
X171996787Y-81000000D01*
X172003182Y-81000418D01*
G37*
%TD.AperFunction*%
%TD*%
%TA.AperFunction,Conductor*%
%TO.N,Common*%
G36*
X170735271Y-87014352D02*
G01*
X170745893Y-87030249D01*
X170759990Y-87064283D01*
X170759992Y-87064286D01*
X170759994Y-87064291D01*
X170796620Y-87122581D01*
X170843854Y-87156096D01*
X170863808Y-87187850D01*
X170864500Y-87196058D01*
X170864500Y-87403540D01*
X170874248Y-87452551D01*
X170874249Y-87452552D01*
X170911378Y-87508121D01*
X170966947Y-87545250D01*
X170966950Y-87545252D01*
X171015955Y-87555000D01*
X171184044Y-87554999D01*
X171233050Y-87545252D01*
X171288621Y-87508121D01*
X171325752Y-87452550D01*
X171335500Y-87403545D01*
X171335500Y-87254500D01*
X171349852Y-87219852D01*
X171384500Y-87205500D01*
X171921054Y-87205500D01*
X171921056Y-87205500D01*
X171933399Y-87205060D01*
X171934213Y-87205031D01*
X171935958Y-87205000D01*
X172064042Y-87205000D01*
X172065787Y-87205031D01*
X172066601Y-87205060D01*
X172078944Y-87205500D01*
X172078946Y-87205500D01*
X172374703Y-87205500D01*
X172409351Y-87219852D01*
X172413571Y-87224664D01*
X172429087Y-87244883D01*
X172435481Y-87255959D01*
X172480493Y-87364628D01*
X172483804Y-87376983D01*
X172499581Y-87496817D01*
X172500000Y-87503213D01*
X172500000Y-88496786D01*
X172499581Y-88503182D01*
X172483804Y-88623016D01*
X172480493Y-88635372D01*
X172435482Y-88744038D01*
X172429086Y-88755116D01*
X172357479Y-88848435D01*
X172348435Y-88857479D01*
X172255116Y-88929086D01*
X172244038Y-88935482D01*
X172135372Y-88980493D01*
X172123016Y-88983804D01*
X172003183Y-88999581D01*
X171996787Y-89000000D01*
X170003213Y-89000000D01*
X169996817Y-88999581D01*
X169876983Y-88983804D01*
X169864627Y-88980493D01*
X169755961Y-88935482D01*
X169744883Y-88929086D01*
X169651564Y-88857479D01*
X169642520Y-88848435D01*
X169570913Y-88755116D01*
X169564517Y-88744038D01*
X169519505Y-88635368D01*
X169516195Y-88623016D01*
X169500419Y-88503182D01*
X169500000Y-88496786D01*
X169500000Y-87503213D01*
X169500419Y-87496817D01*
X169516195Y-87376980D01*
X169519504Y-87364633D01*
X169564520Y-87255955D01*
X169570913Y-87244883D01*
X169642522Y-87151561D01*
X169651561Y-87142522D01*
X169744885Y-87070911D01*
X169755959Y-87064518D01*
X169790455Y-87050230D01*
X169809206Y-87046500D01*
X169922445Y-87046500D01*
X169957093Y-87060852D01*
X169963933Y-87069429D01*
X169997331Y-87122581D01*
X170043856Y-87155593D01*
X170063808Y-87187346D01*
X170064500Y-87195554D01*
X170064500Y-87403540D01*
X170074248Y-87452551D01*
X170074249Y-87452552D01*
X170111378Y-87508121D01*
X170166947Y-87545250D01*
X170166950Y-87545252D01*
X170215955Y-87555000D01*
X170384044Y-87554999D01*
X170433050Y-87545252D01*
X170488621Y-87508121D01*
X170525752Y-87452550D01*
X170535500Y-87403545D01*
X170535499Y-87198370D01*
X170549851Y-87163723D01*
X170558427Y-87156883D01*
X170587084Y-87138877D01*
X170640007Y-87064288D01*
X170654106Y-87030248D01*
X170680624Y-87003730D01*
X170699376Y-87000000D01*
X170700623Y-87000000D01*
X170735271Y-87014352D01*
G37*
%TD.AperFunction*%
%TD*%
%TA.AperFunction,Conductor*%
%TO.N,Vbat*%
G36*
X158503182Y-55500418D02*
G01*
X158623017Y-55516195D01*
X158635368Y-55519505D01*
X158744040Y-55564518D01*
X158755116Y-55570913D01*
X158848435Y-55642520D01*
X158857479Y-55651564D01*
X158929086Y-55744883D01*
X158935482Y-55755961D01*
X158980493Y-55864627D01*
X158983804Y-55876983D01*
X158999581Y-55996817D01*
X159000000Y-56003213D01*
X159000000Y-56996786D01*
X158999581Y-57003182D01*
X158983804Y-57123016D01*
X158980493Y-57135372D01*
X158935482Y-57244038D01*
X158929086Y-57255116D01*
X158857479Y-57348435D01*
X158848435Y-57357479D01*
X158755116Y-57429086D01*
X158744038Y-57435482D01*
X158635372Y-57480493D01*
X158623016Y-57483804D01*
X158503183Y-57499581D01*
X158496787Y-57500000D01*
X156949318Y-57500000D01*
X156914670Y-57485648D01*
X156901373Y-57457532D01*
X156900969Y-57457613D01*
X156900647Y-57455998D01*
X156900554Y-57455800D01*
X156900500Y-57455258D01*
X156900500Y-57455252D01*
X156888867Y-57396769D01*
X156856571Y-57348435D01*
X156844552Y-57330447D01*
X156804795Y-57303882D01*
X156778231Y-57286133D01*
X156719748Y-57274500D01*
X155919748Y-57274500D01*
X155080252Y-57274500D01*
X155021769Y-57286133D01*
X154955447Y-57330447D01*
X154911133Y-57396769D01*
X154899500Y-57455252D01*
X154899500Y-57455255D01*
X154899500Y-57476044D01*
X154895770Y-57494795D01*
X154885644Y-57519239D01*
X154885641Y-57519249D01*
X154883439Y-57530321D01*
X154869999Y-57597891D01*
X154869999Y-57597894D01*
X154869999Y-57700470D01*
X154865408Y-57721179D01*
X154852250Y-57749396D01*
X154847803Y-57757042D01*
X154835608Y-57774229D01*
X154803853Y-57794182D01*
X154798869Y-57794768D01*
X154797438Y-57794862D01*
X154796967Y-57794893D01*
X154793750Y-57794999D01*
X154329741Y-57794999D01*
X154328029Y-57794943D01*
X154328029Y-57794966D01*
X154327273Y-57794941D01*
X154327254Y-57794940D01*
X154313812Y-57794500D01*
X152503213Y-57794500D01*
X152489822Y-57794936D01*
X152484624Y-57795275D01*
X152483415Y-57795355D01*
X152481923Y-57795501D01*
X152469986Y-57796676D01*
X152350145Y-57812454D01*
X152323811Y-57817693D01*
X152323783Y-57817700D01*
X152311431Y-57821010D01*
X152311412Y-57821016D01*
X152286008Y-57829640D01*
X152285987Y-57829647D01*
X152201270Y-57864739D01*
X152163767Y-57864739D01*
X152152675Y-57858332D01*
X152151548Y-57857467D01*
X152142520Y-57848435D01*
X152070913Y-57755116D01*
X152064517Y-57744038D01*
X152019505Y-57635368D01*
X152016195Y-57623016D01*
X152000419Y-57503182D01*
X152000000Y-57496786D01*
X152000000Y-56003213D01*
X152000419Y-55996817D01*
X152016195Y-55876983D01*
X152019504Y-55864633D01*
X152064520Y-55755955D01*
X152070913Y-55744883D01*
X152142522Y-55651561D01*
X152151561Y-55642522D01*
X152244885Y-55570911D01*
X152255955Y-55564520D01*
X152364633Y-55519504D01*
X152376980Y-55516195D01*
X152496817Y-55500418D01*
X152503213Y-55500000D01*
X158496787Y-55500000D01*
X158503182Y-55500418D01*
G37*
%TD.AperFunction*%
%TD*%
%TA.AperFunction,Conductor*%
%TO.N,Common*%
G36*
X156503182Y-57500418D02*
G01*
X156623017Y-57516195D01*
X156635370Y-57519505D01*
X156694252Y-57543895D01*
X156720770Y-57570412D01*
X156724500Y-57589164D01*
X156724500Y-57724174D01*
X156724501Y-57724179D01*
X156730500Y-57769760D01*
X156777150Y-57869799D01*
X156777151Y-57869801D01*
X156855198Y-57947848D01*
X156855200Y-57947849D01*
X156855201Y-57947850D01*
X156955240Y-57994499D01*
X156957388Y-57994781D01*
X156958592Y-57995476D01*
X156958844Y-57995550D01*
X156958826Y-57995611D01*
X156989869Y-58013527D01*
X157000000Y-58043363D01*
X157000000Y-58056636D01*
X156985648Y-58091284D01*
X156957395Y-58105217D01*
X156955241Y-58105500D01*
X156855200Y-58152150D01*
X156855198Y-58152151D01*
X156777151Y-58230198D01*
X156777150Y-58230200D01*
X156730501Y-58330238D01*
X156724500Y-58375824D01*
X156724500Y-58674174D01*
X156724501Y-58674179D01*
X156730500Y-58719760D01*
X156777150Y-58819799D01*
X156777151Y-58819801D01*
X156855198Y-58897848D01*
X156855200Y-58897849D01*
X156855201Y-58897850D01*
X156955240Y-58944499D01*
X156955241Y-58944499D01*
X156957959Y-58945292D01*
X156987205Y-58968769D01*
X156991284Y-59006049D01*
X156981084Y-59024640D01*
X156979497Y-59026448D01*
X156979485Y-59026464D01*
X156965594Y-59044565D01*
X156947431Y-59059142D01*
X156855198Y-59102151D01*
X156777151Y-59180198D01*
X156777150Y-59180200D01*
X156730501Y-59280238D01*
X156728100Y-59298472D01*
X156724501Y-59325820D01*
X156724500Y-59325824D01*
X156724500Y-59624174D01*
X156724501Y-59624179D01*
X156730500Y-59669760D01*
X156777150Y-59769799D01*
X156780145Y-59772794D01*
X156794500Y-59807441D01*
X156794500Y-60883456D01*
X156780148Y-60918104D01*
X156701472Y-60996779D01*
X156701467Y-60996786D01*
X156640282Y-61116870D01*
X156640281Y-61116872D01*
X156640281Y-61116874D01*
X156624500Y-61216512D01*
X156624500Y-61783488D01*
X156640281Y-61883126D01*
X156640281Y-61883127D01*
X156640282Y-61883129D01*
X156701467Y-62003213D01*
X156701473Y-62003221D01*
X156795288Y-62097037D01*
X156809221Y-62125288D01*
X156812453Y-62149839D01*
X156817701Y-62176223D01*
X156821002Y-62188542D01*
X156829646Y-62214007D01*
X156829652Y-62214023D01*
X156864738Y-62298729D01*
X156864738Y-62336232D01*
X156858342Y-62347309D01*
X156857478Y-62348435D01*
X156848433Y-62357480D01*
X156755115Y-62429086D01*
X156744038Y-62435482D01*
X156635372Y-62480493D01*
X156623016Y-62483804D01*
X156503183Y-62499581D01*
X156496787Y-62500000D01*
X152503213Y-62500000D01*
X152496817Y-62499581D01*
X152376983Y-62483804D01*
X152364627Y-62480493D01*
X152255961Y-62435482D01*
X152244883Y-62429086D01*
X152151564Y-62357479D01*
X152142520Y-62348435D01*
X152070913Y-62255116D01*
X152064517Y-62244038D01*
X152019505Y-62135368D01*
X152016195Y-62123016D01*
X152000419Y-62003182D01*
X152000000Y-61996786D01*
X152000000Y-59999997D01*
X152994353Y-59999997D01*
X152994353Y-60000002D01*
X153014833Y-60142454D01*
X153046935Y-60212746D01*
X153074623Y-60273373D01*
X153074624Y-60273374D01*
X153074625Y-60273376D01*
X153168871Y-60382142D01*
X153168872Y-60382143D01*
X153289947Y-60459953D01*
X153366785Y-60482514D01*
X153428034Y-60500499D01*
X153428037Y-60500499D01*
X153428039Y-60500500D01*
X153428040Y-60500500D01*
X153571960Y-60500500D01*
X153571961Y-60500500D01*
X153571963Y-60500499D01*
X153571965Y-60500499D01*
X153594795Y-60493795D01*
X153710053Y-60459953D01*
X153831128Y-60382143D01*
X153887218Y-60317412D01*
X153920754Y-60300625D01*
X153924250Y-60300500D01*
X154074564Y-60300500D01*
X154101230Y-60293354D01*
X154150989Y-60280021D01*
X154219511Y-60240460D01*
X154275460Y-60184511D01*
X154545119Y-59914850D01*
X154579767Y-59900499D01*
X154799174Y-59900499D01*
X154799178Y-59900499D01*
X154844760Y-59894499D01*
X154944799Y-59847850D01*
X155022850Y-59769799D01*
X155069499Y-59669760D01*
X155075500Y-59624179D01*
X155075499Y-59325822D01*
X155069499Y-59280240D01*
X155069498Y-59280238D01*
X155047745Y-59233590D01*
X155022850Y-59180201D01*
X155022849Y-59180200D01*
X155022848Y-59180198D01*
X154944801Y-59102151D01*
X154944799Y-59102150D01*
X154844761Y-59055501D01*
X154833364Y-59054000D01*
X154799179Y-59049500D01*
X154799176Y-59049500D01*
X154320825Y-59049500D01*
X154320820Y-59049501D01*
X154275239Y-59055500D01*
X154175200Y-59102150D01*
X154175198Y-59102151D01*
X154097151Y-59180198D01*
X154097150Y-59180200D01*
X154050501Y-59280238D01*
X154044500Y-59325823D01*
X154044500Y-59545232D01*
X154030148Y-59579880D01*
X153943105Y-59666922D01*
X153908457Y-59681274D01*
X153873809Y-59666922D01*
X153871425Y-59664362D01*
X153831128Y-59617857D01*
X153772034Y-59579880D01*
X153710053Y-59540047D01*
X153710050Y-59540046D01*
X153571965Y-59499500D01*
X153571961Y-59499500D01*
X153428039Y-59499500D01*
X153428034Y-59499500D01*
X153289949Y-59540046D01*
X153168871Y-59617857D01*
X153074625Y-59726623D01*
X153074624Y-59726625D01*
X153014833Y-59857545D01*
X152994353Y-59999997D01*
X152000000Y-59999997D01*
X152000000Y-58503213D01*
X152000419Y-58496817D01*
X152016195Y-58376983D01*
X152019504Y-58364633D01*
X152064520Y-58255955D01*
X152070913Y-58244883D01*
X152082180Y-58230200D01*
X152142522Y-58151561D01*
X152151561Y-58142522D01*
X152244885Y-58070911D01*
X152255955Y-58064520D01*
X152364633Y-58019504D01*
X152376980Y-58016195D01*
X152496817Y-58000418D01*
X152503213Y-58000000D01*
X154313812Y-58000000D01*
X154320204Y-58000419D01*
X154320351Y-58000438D01*
X154320821Y-58000500D01*
X154799178Y-58000499D01*
X154802969Y-58000000D01*
X155000000Y-58000000D01*
X155000000Y-57892649D01*
X155022848Y-57869801D01*
X155022850Y-57869799D01*
X155069499Y-57769760D01*
X155075500Y-57724179D01*
X155075499Y-57597889D01*
X155089850Y-57563243D01*
X155097265Y-57557158D01*
X155146228Y-57524442D01*
X155163880Y-57517130D01*
X155245274Y-57500939D01*
X155254823Y-57500000D01*
X156496787Y-57500000D01*
X156503182Y-57500418D01*
G37*
%TD.AperFunction*%
%TD*%
%TA.AperFunction,Conductor*%
%TO.N,3.3V*%
G36*
X158503182Y-59000418D02*
G01*
X158623017Y-59016195D01*
X158635368Y-59019505D01*
X158744040Y-59064518D01*
X158755116Y-59070913D01*
X158848435Y-59142520D01*
X158857479Y-59151564D01*
X158929086Y-59244883D01*
X158935482Y-59255961D01*
X158980493Y-59364627D01*
X158983804Y-59376983D01*
X158999581Y-59496817D01*
X159000000Y-59503213D01*
X159000000Y-61996786D01*
X158999581Y-62003182D01*
X158983804Y-62123016D01*
X158980493Y-62135372D01*
X158935482Y-62244038D01*
X158929086Y-62255116D01*
X158857479Y-62348435D01*
X158848435Y-62357479D01*
X158755116Y-62429086D01*
X158744038Y-62435482D01*
X158635372Y-62480493D01*
X158623016Y-62483804D01*
X158503183Y-62499581D01*
X158496787Y-62500000D01*
X157503213Y-62500000D01*
X157496817Y-62499581D01*
X157376983Y-62483804D01*
X157364627Y-62480493D01*
X157255961Y-62435482D01*
X157244883Y-62429086D01*
X157151564Y-62357479D01*
X157142520Y-62348435D01*
X157070913Y-62255116D01*
X157064517Y-62244038D01*
X157019505Y-62135368D01*
X157016195Y-62123016D01*
X157000419Y-62003182D01*
X157000000Y-61996786D01*
X157000000Y-59503213D01*
X157000419Y-59496817D01*
X157016195Y-59376983D01*
X157019504Y-59364633D01*
X157064520Y-59255955D01*
X157070913Y-59244883D01*
X157142522Y-59151561D01*
X157151561Y-59142522D01*
X157244885Y-59070911D01*
X157255955Y-59064520D01*
X157364633Y-59019504D01*
X157376980Y-59016195D01*
X157496817Y-59000418D01*
X157503213Y-59000000D01*
X158496787Y-59000000D01*
X158503182Y-59000418D01*
G37*
%TD.AperFunction*%
%TD*%
M02*
